<mxfile host="Electron" modified="2023-12-13T02:10:38.983Z" agent="Mozilla/5.0 (X11; Linux x86_64) AppleWebKit/537.36 (KHTML, like Gecko) draw.io/21.1.2 Chrome/106.0.5249.199 Electron/21.4.3 Safari/537.36" etag="RBy0JfXdm6qZMfUKofPy" version="21.1.2" type="device">
  <diagram name="PÃ¡gina-1" id="Q39FMLRvRPiPcKhhfCA-">
    <mxGraphModel dx="2138" dy="191" grid="0" gridSize="10" guides="1" tooltips="0" connect="1" arrows="1" fold="1" page="0" pageScale="1" pageWidth="827" pageHeight="1169" background="#191A21" math="0" shadow="0">
      <root>
        <object label="" fundo="" id="0">
          <mxCell />
        </object>
        <mxCell id="ufFklaLvF3Zcsidc5OTK-153" value="action" style="" parent="0" />
        <UserObject label="exe" link="data:action/json,{   &quot;title&quot;: &quot;limpar&quot;,   &quot;actions&quot;: [     {       &quot;hide&quot;: {         &quot;cells&quot;: [           &quot;ufFklaLvF3Zcsidc5OTK-51&quot;, &quot;ufFklaLvF3Zcsidc5OTK-2&quot;, &quot;ufFklaLvF3Zcsidc5OTK-91&quot;, &quot;ufFklaLvF3Zcsidc5OTK-111&quot;, &quot;ufFklaLvF3Zcsidc5OTK-131&quot;          ]       }     },     {       &quot;wait&quot;: &quot;300&quot;     },     {       &quot;show&quot;: {        &quot;cells&quot;: [           &quot;ufFklaLvF3Zcsidc5OTK-51&quot;         ]       }     },     {       &quot;wait&quot;: &quot;300&quot;     },     {       &quot;hide&quot;: {         &quot;cells&quot;: [           &quot;ufFklaLvF3Zcsidc5OTK-51&quot;         ]       }     },     {       &quot;show&quot;: {         &quot;cells&quot;: [           &quot;ufFklaLvF3Zcsidc5OTK-2&quot;         ]       }     },     {       &quot;wait&quot;: &quot;300&quot;     },     {       &quot;hide&quot;: {         &quot;cells&quot;: [           &quot;ufFklaLvF3Zcsidc5OTK-2&quot;         ]       }     },              {       &quot;show&quot;: {         &quot;cells&quot;: [           &quot;ufFklaLvF3Zcsidc5OTK-91&quot;         ]       }     },     {       &quot;wait&quot;: &quot;300&quot;     },     {       &quot;hide&quot;: {         &quot;cells&quot;: [           &quot;ufFklaLvF3Zcsidc5OTK-91&quot;         ]       }     },          {       &quot;show&quot;: {         &quot;cells&quot;: [           &quot;ufFklaLvF3Zcsidc5OTK-111&quot;         ]       }     },     {       &quot;wait&quot;: &quot;300&quot;     },     {       &quot;hide&quot;: {         &quot;cells&quot;: [           &quot;ufFklaLvF3Zcsidc5OTK-111&quot;         ]       }     },      {       &quot;show&quot;: {         &quot;cells&quot;: [           &quot;ufFklaLvF3Zcsidc5OTK-131&quot;         ]       }     },     {       &quot;wait&quot;: &quot;300&quot;     },     {       &quot;hide&quot;: {         &quot;cells&quot;: [           &quot;ufFklaLvF3Zcsidc5OTK-131&quot;         ]       }     },              {       &quot;show&quot;: {         &quot;cells&quot;: [           &quot;ufFklaLvF3Zcsidc5OTK-173&quot;         ]       }     },     {       &quot;wait&quot;: &quot;300&quot;     },     {       &quot;hide&quot;: {         &quot;cells&quot;: [           &quot;ufFklaLvF3Zcsidc5OTK-173&quot;         ]       }     },                  {       &quot;show&quot;: {         &quot;cells&quot;: [           &quot;ufFklaLvF3Zcsidc5OTK-194&quot;         ]       }     },     {       &quot;wait&quot;: &quot;300&quot;     },     {       &quot;hide&quot;: {         &quot;cells&quot;: [           &quot;ufFklaLvF3Zcsidc5OTK-194&quot;         ]       }     },                      {       &quot;show&quot;: {         &quot;cells&quot;: [           &quot;ufFklaLvF3Zcsidc5OTK-214&quot;         ]       }     },     {       &quot;wait&quot;: &quot;300&quot;     },     {       &quot;hide&quot;: {         &quot;cells&quot;: [           &quot;ufFklaLvF3Zcsidc5OTK-214&quot;         ]       }     },                      {       &quot;show&quot;: {         &quot;cells&quot;: [           &quot;ufFklaLvF3Zcsidc5OTK-235&quot;         ]       }     },     {       &quot;wait&quot;: &quot;300&quot;     },     {       &quot;hide&quot;: {         &quot;cells&quot;: [           &quot;ufFklaLvF3Zcsidc5OTK-235&quot;         ]       }     },                      {       &quot;show&quot;: {         &quot;cells&quot;: [           &quot;ufFklaLvF3Zcsidc5OTK-255&quot;         ]       }     },     {       &quot;wait&quot;: &quot;300&quot;     },     {       &quot;hide&quot;: {         &quot;cells&quot;: [           &quot;ufFklaLvF3Zcsidc5OTK-255&quot;         ]       }     },                      {       &quot;show&quot;: {         &quot;cells&quot;: [           &quot;ufFklaLvF3Zcsidc5OTK-274&quot;         ]       }     },     {       &quot;wait&quot;: &quot;300&quot;     },     {       &quot;hide&quot;: {         &quot;cells&quot;: [           &quot;ufFklaLvF3Zcsidc5OTK-274&quot;         ]       }     },                      {       &quot;show&quot;: {         &quot;cells&quot;: [           &quot;ufFklaLvF3Zcsidc5OTK-314&quot;         ]       }     },     {       &quot;wait&quot;: &quot;300&quot;     },     {       &quot;hide&quot;: {         &quot;cells&quot;: [           &quot;ufFklaLvF3Zcsidc5OTK-314&quot;         ]       }     },                          {       &quot;show&quot;: {         &quot;cells&quot;: [           &quot;ufFklaLvF3Zcsidc5OTK-334&quot;         ]       }     },     {       &quot;wait&quot;: &quot;300&quot;     },     {       &quot;hide&quot;: {         &quot;cells&quot;: [           &quot;ufFklaLvF3Zcsidc5OTK-334&quot;         ]       }     }             ] }" id="ufFklaLvF3Zcsidc5OTK-172">
          <mxCell style="rounded=1;whiteSpace=wrap;html=1;fontSize=25;fillColor=#f5f5f5;fontColor=#333333;strokeColor=#666666;strokeWidth=3;" vertex="1" parent="ufFklaLvF3Zcsidc5OTK-153">
            <mxGeometry x="-521" y="796" width="210" height="60" as="geometry" />
          </mxCell>
        </UserObject>
        <mxCell id="ufFklaLvF3Zcsidc5OTK-334" value="camada14" style="" visible="0" parent="0" />
        <mxCell id="ufFklaLvF3Zcsidc5OTK-335" style="edgeStyle=none;curved=1;rounded=0;orthogonalLoop=1;jettySize=auto;html=1;fontSize=12;startSize=8;endSize=8;endArrow=block;endFill=1;strokeWidth=1;strokeColor=#FFFFFF;flowAnimation=0;" edge="1" parent="ufFklaLvF3Zcsidc5OTK-334" source="ufFklaLvF3Zcsidc5OTK-338" target="ufFklaLvF3Zcsidc5OTK-342">
          <mxGeometry relative="1" as="geometry" />
        </mxCell>
        <mxCell id="ufFklaLvF3Zcsidc5OTK-336" style="edgeStyle=none;curved=1;rounded=0;orthogonalLoop=1;jettySize=auto;html=1;entryX=0;entryY=0.5;entryDx=0;entryDy=0;fontSize=12;startSize=8;endSize=8;endArrow=block;endFill=1;strokeWidth=1;strokeColor=#FFFFFF;flowAnimation=0;" edge="1" parent="ufFklaLvF3Zcsidc5OTK-334" source="ufFklaLvF3Zcsidc5OTK-338" target="ufFklaLvF3Zcsidc5OTK-340">
          <mxGeometry relative="1" as="geometry" />
        </mxCell>
        <mxCell id="ufFklaLvF3Zcsidc5OTK-337" style="edgeStyle=none;curved=1;rounded=0;orthogonalLoop=1;jettySize=auto;html=1;entryX=0;entryY=0.5;entryDx=0;entryDy=0;fontSize=12;startSize=8;endSize=8;endArrow=block;endFill=1;strokeWidth=1;strokeColor=#FFFFFF;flowAnimation=0;" edge="1" parent="ufFklaLvF3Zcsidc5OTK-334" source="ufFklaLvF3Zcsidc5OTK-338" target="ufFklaLvF3Zcsidc5OTK-344">
          <mxGeometry relative="1" as="geometry" />
        </mxCell>
        <mxCell id="ufFklaLvF3Zcsidc5OTK-338" value="Exchange" style="rhombus;whiteSpace=wrap;html=1;fontSize=15;strokeWidth=2;fontStyle=1" vertex="1" parent="ufFklaLvF3Zcsidc5OTK-334">
          <mxGeometry x="-117.15999999999997" y="1025.5" width="105" height="105" as="geometry" />
        </mxCell>
        <mxCell id="ufFklaLvF3Zcsidc5OTK-339" style="edgeStyle=none;curved=1;rounded=0;orthogonalLoop=1;jettySize=auto;html=1;fontSize=12;startSize=8;endSize=8;endArrow=block;endFill=1;strokeWidth=1;entryX=0;entryY=0.5;entryDx=0;entryDy=0;strokeColor=#FFFFFF;flowAnimation=0;" edge="1" parent="ufFklaLvF3Zcsidc5OTK-334" source="ufFklaLvF3Zcsidc5OTK-340" target="ufFklaLvF3Zcsidc5OTK-345">
          <mxGeometry relative="1" as="geometry">
            <mxPoint x="309" y="993" as="targetPoint" />
          </mxGeometry>
        </mxCell>
        <mxCell id="ufFklaLvF3Zcsidc5OTK-340" value="Queue A" style="rounded=1;whiteSpace=wrap;html=1;fontSize=11;fontStyle=1;fillColor=#191A21;" vertex="1" parent="ufFklaLvF3Zcsidc5OTK-334">
          <mxGeometry x="96" y="963" width="120" height="60" as="geometry" />
        </mxCell>
        <mxCell id="ufFklaLvF3Zcsidc5OTK-341" style="edgeStyle=none;curved=1;rounded=0;orthogonalLoop=1;jettySize=auto;html=1;fontSize=12;startSize=8;endSize=8;endArrow=block;endFill=1;strokeWidth=1;entryX=0.003;entryY=0.463;entryDx=0;entryDy=0;entryPerimeter=0;strokeColor=#FFFFFF;flowAnimation=0;" edge="1" parent="ufFklaLvF3Zcsidc5OTK-334" target="ufFklaLvF3Zcsidc5OTK-346">
          <mxGeometry relative="1" as="geometry">
            <mxPoint x="215" y="1080" as="sourcePoint" />
            <mxPoint x="314.1200000000001" y="1079.76" as="targetPoint" />
          </mxGeometry>
        </mxCell>
        <mxCell id="ufFklaLvF3Zcsidc5OTK-342" value="Queue B" style="rounded=1;whiteSpace=wrap;html=1;fontSize=11;fontStyle=1;fillColor=#191A21;" vertex="1" parent="ufFklaLvF3Zcsidc5OTK-334">
          <mxGeometry x="94" y="1048" width="120" height="60" as="geometry" />
        </mxCell>
        <mxCell id="ufFklaLvF3Zcsidc5OTK-343" style="edgeStyle=none;curved=1;rounded=0;orthogonalLoop=1;jettySize=auto;html=1;entryX=0;entryY=0.5;entryDx=0;entryDy=0;fontSize=12;startSize=8;endSize=8;endArrow=block;endFill=1;strokeColor=#FFFFFF;flowAnimation=0;strokeWidth=1;" edge="1" parent="ufFklaLvF3Zcsidc5OTK-334" source="ufFklaLvF3Zcsidc5OTK-344" target="ufFklaLvF3Zcsidc5OTK-347">
          <mxGeometry relative="1" as="geometry" />
        </mxCell>
        <mxCell id="ufFklaLvF3Zcsidc5OTK-344" value="Queue C" style="rounded=1;whiteSpace=wrap;html=1;fontSize=11;fontStyle=1;fillColor=#191A21;" vertex="1" parent="ufFklaLvF3Zcsidc5OTK-334">
          <mxGeometry x="96" y="1130.5" width="120" height="60" as="geometry" />
        </mxCell>
        <mxCell id="ufFklaLvF3Zcsidc5OTK-345" value="Consumer A" style="ellipse;whiteSpace=wrap;html=1;aspect=fixed;fontSize=8;fontStyle=1" vertex="1" parent="ufFklaLvF3Zcsidc5OTK-334">
          <mxGeometry x="323" y="961" width="64" height="64" as="geometry" />
        </mxCell>
        <mxCell id="ufFklaLvF3Zcsidc5OTK-346" value="Consumer B" style="ellipse;whiteSpace=wrap;html=1;aspect=fixed;fontSize=8;fontStyle=1" vertex="1" parent="ufFklaLvF3Zcsidc5OTK-334">
          <mxGeometry x="323" y="1051" width="64" height="64" as="geometry" />
        </mxCell>
        <mxCell id="ufFklaLvF3Zcsidc5OTK-347" value="Consumer C" style="ellipse;whiteSpace=wrap;html=1;aspect=fixed;fontSize=8;fontStyle=1" vertex="1" parent="ufFklaLvF3Zcsidc5OTK-334">
          <mxGeometry x="323" y="1128.5" width="64" height="64" as="geometry" />
        </mxCell>
        <mxCell id="ufFklaLvF3Zcsidc5OTK-348" value="Routing Key: &lt;font color=&quot;#ff33ff&quot;&gt;&lt;b&gt;X&lt;/b&gt;&lt;/font&gt;" style="text;strokeColor=none;fillColor=none;html=1;align=center;verticalAlign=middle;whiteSpace=wrap;rounded=0;fontSize=9;rotation=-30;" vertex="1" parent="ufFklaLvF3Zcsidc5OTK-334">
          <mxGeometry x="-28" y="1001" width="82" height="30" as="geometry" />
        </mxCell>
        <mxCell id="ufFklaLvF3Zcsidc5OTK-349" value="Routing Key: &lt;b&gt;&lt;font color=&quot;#ff33ff&quot;&gt;Z&lt;/font&gt;&lt;/b&gt;" style="text;strokeColor=none;fillColor=none;html=1;align=center;verticalAlign=middle;whiteSpace=wrap;rounded=0;fontSize=9;rotation=28;" vertex="1" parent="ufFklaLvF3Zcsidc5OTK-334">
          <mxGeometry x="-22" y="1126" width="82" height="30" as="geometry" />
        </mxCell>
        <mxCell id="ufFklaLvF3Zcsidc5OTK-350" value="Routing Key: &lt;font color=&quot;#ff33ff&quot;&gt;&lt;b&gt;Y&lt;/b&gt;&lt;/font&gt;" style="text;strokeColor=none;fillColor=none;html=1;align=center;verticalAlign=middle;whiteSpace=wrap;rounded=0;fontSize=9;rotation=0;" vertex="1" parent="ufFklaLvF3Zcsidc5OTK-334">
          <mxGeometry x="-12.160000000000025" y="1051" width="82" height="30" as="geometry" />
        </mxCell>
        <mxCell id="ufFklaLvF3Zcsidc5OTK-351" value="Producer" style="ellipse;whiteSpace=wrap;html=1;aspect=fixed;fontSize=10;fontStyle=1" vertex="1" parent="ufFklaLvF3Zcsidc5OTK-334">
          <mxGeometry x="-298" y="1038" width="80" height="80" as="geometry" />
        </mxCell>
        <mxCell id="ufFklaLvF3Zcsidc5OTK-352" value="" style="endArrow=block;html=1;rounded=0;fontSize=12;startSize=8;endSize=8;curved=1;endFill=1;strokeWidth=1;flowAnimation=0;strokeColor=#FFFFFF;" edge="1" parent="ufFklaLvF3Zcsidc5OTK-334">
          <mxGeometry relative="1" as="geometry">
            <mxPoint x="-218" y="1077.9" as="sourcePoint" />
            <mxPoint x="-118" y="1077.9" as="targetPoint" />
          </mxGeometry>
        </mxCell>
        <mxCell id="ufFklaLvF3Zcsidc5OTK-314" value="camada13" style="" visible="0" parent="0" />
        <mxCell id="ufFklaLvF3Zcsidc5OTK-315" style="edgeStyle=none;curved=1;rounded=0;orthogonalLoop=1;jettySize=auto;html=1;fontSize=12;startSize=8;endSize=8;endArrow=block;endFill=1;strokeWidth=1;strokeColor=#FFFFFF;flowAnimation=0;" edge="1" parent="ufFklaLvF3Zcsidc5OTK-314" source="ufFklaLvF3Zcsidc5OTK-318" target="ufFklaLvF3Zcsidc5OTK-322">
          <mxGeometry relative="1" as="geometry" />
        </mxCell>
        <mxCell id="ufFklaLvF3Zcsidc5OTK-316" style="edgeStyle=none;curved=1;rounded=0;orthogonalLoop=1;jettySize=auto;html=1;entryX=0;entryY=0.5;entryDx=0;entryDy=0;fontSize=12;startSize=8;endSize=8;endArrow=block;endFill=1;strokeWidth=1;strokeColor=#FFFFFF;flowAnimation=0;" edge="1" parent="ufFklaLvF3Zcsidc5OTK-314" source="ufFklaLvF3Zcsidc5OTK-318" target="ufFklaLvF3Zcsidc5OTK-320">
          <mxGeometry relative="1" as="geometry" />
        </mxCell>
        <mxCell id="ufFklaLvF3Zcsidc5OTK-317" style="edgeStyle=none;curved=1;rounded=0;orthogonalLoop=1;jettySize=auto;html=1;entryX=0;entryY=0.5;entryDx=0;entryDy=0;fontSize=12;startSize=8;endSize=8;endArrow=block;endFill=1;strokeWidth=1;strokeColor=#FFFFFF;flowAnimation=0;" edge="1" parent="ufFklaLvF3Zcsidc5OTK-314" source="ufFklaLvF3Zcsidc5OTK-318" target="ufFklaLvF3Zcsidc5OTK-324">
          <mxGeometry relative="1" as="geometry" />
        </mxCell>
        <mxCell id="ufFklaLvF3Zcsidc5OTK-318" value="Exchange" style="rhombus;whiteSpace=wrap;html=1;fontSize=15;strokeWidth=2;fontStyle=1" vertex="1" parent="ufFklaLvF3Zcsidc5OTK-314">
          <mxGeometry x="-117.15999999999997" y="1025.5" width="105" height="105" as="geometry" />
        </mxCell>
        <mxCell id="ufFklaLvF3Zcsidc5OTK-319" style="edgeStyle=none;curved=1;rounded=0;orthogonalLoop=1;jettySize=auto;html=1;fontSize=12;startSize=8;endSize=8;endArrow=block;endFill=1;strokeWidth=2;entryX=0;entryY=0.5;entryDx=0;entryDy=0;strokeColor=#3DFF1F;flowAnimation=1;" edge="1" parent="ufFklaLvF3Zcsidc5OTK-314" source="ufFklaLvF3Zcsidc5OTK-320" target="ufFklaLvF3Zcsidc5OTK-325">
          <mxGeometry relative="1" as="geometry">
            <mxPoint x="309" y="993" as="targetPoint" />
          </mxGeometry>
        </mxCell>
        <mxCell id="ufFklaLvF3Zcsidc5OTK-320" value="Queue A" style="rounded=1;whiteSpace=wrap;html=1;fontSize=11;fontStyle=1;fillColor=#191A21;" vertex="1" parent="ufFklaLvF3Zcsidc5OTK-314">
          <mxGeometry x="96" y="963" width="120" height="60" as="geometry" />
        </mxCell>
        <mxCell id="ufFklaLvF3Zcsidc5OTK-321" style="edgeStyle=none;curved=1;rounded=0;orthogonalLoop=1;jettySize=auto;html=1;fontSize=12;startSize=8;endSize=8;endArrow=block;endFill=1;strokeWidth=1;entryX=0.003;entryY=0.463;entryDx=0;entryDy=0;entryPerimeter=0;strokeColor=#FFFFFF;flowAnimation=0;" edge="1" parent="ufFklaLvF3Zcsidc5OTK-314" target="ufFklaLvF3Zcsidc5OTK-326">
          <mxGeometry relative="1" as="geometry">
            <mxPoint x="215" y="1080" as="sourcePoint" />
            <mxPoint x="314.1200000000001" y="1079.76" as="targetPoint" />
          </mxGeometry>
        </mxCell>
        <mxCell id="ufFklaLvF3Zcsidc5OTK-322" value="Queue B" style="rounded=1;whiteSpace=wrap;html=1;fontSize=11;fontStyle=1;fillColor=#191A21;" vertex="1" parent="ufFklaLvF3Zcsidc5OTK-314">
          <mxGeometry x="94" y="1048" width="120" height="60" as="geometry" />
        </mxCell>
        <mxCell id="ufFklaLvF3Zcsidc5OTK-323" style="edgeStyle=none;curved=1;rounded=0;orthogonalLoop=1;jettySize=auto;html=1;entryX=0;entryY=0.5;entryDx=0;entryDy=0;fontSize=12;startSize=8;endSize=8;endArrow=block;endFill=1;strokeColor=#FFFFFF;flowAnimation=0;strokeWidth=1;" edge="1" parent="ufFklaLvF3Zcsidc5OTK-314" source="ufFklaLvF3Zcsidc5OTK-324" target="ufFklaLvF3Zcsidc5OTK-327">
          <mxGeometry relative="1" as="geometry" />
        </mxCell>
        <mxCell id="ufFklaLvF3Zcsidc5OTK-324" value="Queue C" style="rounded=1;whiteSpace=wrap;html=1;fontSize=11;fontStyle=1;fillColor=#191A21;" vertex="1" parent="ufFklaLvF3Zcsidc5OTK-314">
          <mxGeometry x="96" y="1130.5" width="120" height="60" as="geometry" />
        </mxCell>
        <mxCell id="ufFklaLvF3Zcsidc5OTK-325" value="Consumer A" style="ellipse;whiteSpace=wrap;html=1;aspect=fixed;fontSize=8;fontStyle=1" vertex="1" parent="ufFklaLvF3Zcsidc5OTK-314">
          <mxGeometry x="323" y="961" width="64" height="64" as="geometry" />
        </mxCell>
        <mxCell id="ufFklaLvF3Zcsidc5OTK-326" value="Consumer B" style="ellipse;whiteSpace=wrap;html=1;aspect=fixed;fontSize=8;fontStyle=1" vertex="1" parent="ufFklaLvF3Zcsidc5OTK-314">
          <mxGeometry x="323" y="1051" width="64" height="64" as="geometry" />
        </mxCell>
        <mxCell id="ufFklaLvF3Zcsidc5OTK-327" value="Consumer C" style="ellipse;whiteSpace=wrap;html=1;aspect=fixed;fontSize=8;fontStyle=1" vertex="1" parent="ufFklaLvF3Zcsidc5OTK-314">
          <mxGeometry x="323" y="1128.5" width="64" height="64" as="geometry" />
        </mxCell>
        <mxCell id="ufFklaLvF3Zcsidc5OTK-328" value="Routing Key: &lt;font color=&quot;#ff33ff&quot;&gt;&lt;b&gt;X&lt;/b&gt;&lt;/font&gt;" style="text;strokeColor=none;fillColor=none;html=1;align=center;verticalAlign=middle;whiteSpace=wrap;rounded=0;fontSize=9;rotation=-30;" vertex="1" parent="ufFklaLvF3Zcsidc5OTK-314">
          <mxGeometry x="-28" y="1001" width="82" height="30" as="geometry" />
        </mxCell>
        <mxCell id="ufFklaLvF3Zcsidc5OTK-329" value="Routing Key: &lt;b&gt;&lt;font color=&quot;#ff33ff&quot;&gt;Z&lt;/font&gt;&lt;/b&gt;" style="text;strokeColor=none;fillColor=none;html=1;align=center;verticalAlign=middle;whiteSpace=wrap;rounded=0;fontSize=9;rotation=28;" vertex="1" parent="ufFklaLvF3Zcsidc5OTK-314">
          <mxGeometry x="-22" y="1126" width="82" height="30" as="geometry" />
        </mxCell>
        <mxCell id="ufFklaLvF3Zcsidc5OTK-330" value="Routing Key: &lt;font color=&quot;#ff33ff&quot;&gt;&lt;b&gt;Y&lt;/b&gt;&lt;/font&gt;" style="text;strokeColor=none;fillColor=none;html=1;align=center;verticalAlign=middle;whiteSpace=wrap;rounded=0;fontSize=9;rotation=0;" vertex="1" parent="ufFklaLvF3Zcsidc5OTK-314">
          <mxGeometry x="-12.160000000000025" y="1051" width="82" height="30" as="geometry" />
        </mxCell>
        <mxCell id="ufFklaLvF3Zcsidc5OTK-331" value="Producer" style="ellipse;whiteSpace=wrap;html=1;aspect=fixed;fontSize=10;fontStyle=1" vertex="1" parent="ufFklaLvF3Zcsidc5OTK-314">
          <mxGeometry x="-298" y="1038" width="80" height="80" as="geometry" />
        </mxCell>
        <mxCell id="ufFklaLvF3Zcsidc5OTK-332" value="" style="endArrow=block;html=1;rounded=0;fontSize=12;startSize=8;endSize=8;curved=1;endFill=1;strokeWidth=1;flowAnimation=0;strokeColor=#FFFFFF;" edge="1" parent="ufFklaLvF3Zcsidc5OTK-314">
          <mxGeometry relative="1" as="geometry">
            <mxPoint x="-218" y="1077.9" as="sourcePoint" />
            <mxPoint x="-118" y="1077.9" as="targetPoint" />
          </mxGeometry>
        </mxCell>
        <mxCell id="ufFklaLvF3Zcsidc5OTK-333" value="" style="shape=message;html=1;outlineConnect=0;fontSize=16;" vertex="1" parent="ufFklaLvF3Zcsidc5OTK-314">
          <mxGeometry x="290" y="986" width="20" height="14" as="geometry" />
        </mxCell>
        <mxCell id="ufFklaLvF3Zcsidc5OTK-294" value="camada12" style="" visible="0" parent="0" />
        <mxCell id="ufFklaLvF3Zcsidc5OTK-295" style="edgeStyle=none;curved=1;rounded=0;orthogonalLoop=1;jettySize=auto;html=1;fontSize=12;startSize=8;endSize=8;endArrow=block;endFill=1;strokeWidth=1;strokeColor=#FFFFFF;flowAnimation=0;" edge="1" parent="ufFklaLvF3Zcsidc5OTK-294" source="ufFklaLvF3Zcsidc5OTK-298" target="ufFklaLvF3Zcsidc5OTK-302">
          <mxGeometry relative="1" as="geometry" />
        </mxCell>
        <mxCell id="ufFklaLvF3Zcsidc5OTK-296" style="edgeStyle=none;curved=1;rounded=0;orthogonalLoop=1;jettySize=auto;html=1;entryX=0;entryY=0.5;entryDx=0;entryDy=0;fontSize=12;startSize=8;endSize=8;endArrow=block;endFill=1;strokeWidth=1;strokeColor=#FFFFFF;flowAnimation=0;" edge="1" parent="ufFklaLvF3Zcsidc5OTK-294" source="ufFklaLvF3Zcsidc5OTK-298" target="ufFklaLvF3Zcsidc5OTK-300">
          <mxGeometry relative="1" as="geometry" />
        </mxCell>
        <mxCell id="ufFklaLvF3Zcsidc5OTK-297" style="edgeStyle=none;curved=1;rounded=0;orthogonalLoop=1;jettySize=auto;html=1;entryX=0;entryY=0.5;entryDx=0;entryDy=0;fontSize=12;startSize=8;endSize=8;endArrow=block;endFill=1;strokeWidth=1;strokeColor=#FFFFFF;flowAnimation=0;" edge="1" parent="ufFklaLvF3Zcsidc5OTK-294" source="ufFklaLvF3Zcsidc5OTK-298" target="ufFklaLvF3Zcsidc5OTK-304">
          <mxGeometry relative="1" as="geometry" />
        </mxCell>
        <mxCell id="ufFklaLvF3Zcsidc5OTK-298" value="Exchange" style="rhombus;whiteSpace=wrap;html=1;fontSize=15;strokeWidth=2;fontStyle=1" vertex="1" parent="ufFklaLvF3Zcsidc5OTK-294">
          <mxGeometry x="-117.15999999999997" y="1025.5" width="105" height="105" as="geometry" />
        </mxCell>
        <mxCell id="ufFklaLvF3Zcsidc5OTK-299" style="edgeStyle=none;curved=1;rounded=0;orthogonalLoop=1;jettySize=auto;html=1;fontSize=12;startSize=8;endSize=8;endArrow=block;endFill=1;strokeWidth=2;entryX=0;entryY=0.5;entryDx=0;entryDy=0;strokeColor=#3DFF1F;flowAnimation=1;" edge="1" parent="ufFklaLvF3Zcsidc5OTK-294" source="ufFklaLvF3Zcsidc5OTK-300" target="ufFklaLvF3Zcsidc5OTK-305">
          <mxGeometry relative="1" as="geometry">
            <mxPoint x="309" y="993" as="targetPoint" />
          </mxGeometry>
        </mxCell>
        <mxCell id="ufFklaLvF3Zcsidc5OTK-300" value="Queue A" style="rounded=1;whiteSpace=wrap;html=1;fontSize=11;fontStyle=1;fillColor=#191A21;" vertex="1" parent="ufFklaLvF3Zcsidc5OTK-294">
          <mxGeometry x="96" y="963" width="120" height="60" as="geometry" />
        </mxCell>
        <mxCell id="ufFklaLvF3Zcsidc5OTK-301" style="edgeStyle=none;curved=1;rounded=0;orthogonalLoop=1;jettySize=auto;html=1;fontSize=12;startSize=8;endSize=8;endArrow=block;endFill=1;strokeWidth=1;entryX=0.003;entryY=0.463;entryDx=0;entryDy=0;entryPerimeter=0;strokeColor=#FFFFFF;flowAnimation=0;" edge="1" parent="ufFklaLvF3Zcsidc5OTK-294" target="ufFklaLvF3Zcsidc5OTK-306">
          <mxGeometry relative="1" as="geometry">
            <mxPoint x="215" y="1080" as="sourcePoint" />
            <mxPoint x="314.1200000000001" y="1079.76" as="targetPoint" />
          </mxGeometry>
        </mxCell>
        <mxCell id="ufFklaLvF3Zcsidc5OTK-302" value="Queue B" style="rounded=1;whiteSpace=wrap;html=1;fontSize=11;fontStyle=1;fillColor=#191A21;" vertex="1" parent="ufFklaLvF3Zcsidc5OTK-294">
          <mxGeometry x="94" y="1048" width="120" height="60" as="geometry" />
        </mxCell>
        <mxCell id="ufFklaLvF3Zcsidc5OTK-303" style="edgeStyle=none;curved=1;rounded=0;orthogonalLoop=1;jettySize=auto;html=1;entryX=0;entryY=0.5;entryDx=0;entryDy=0;fontSize=12;startSize=8;endSize=8;endArrow=block;endFill=1;strokeColor=#FFFFFF;flowAnimation=0;strokeWidth=1;" edge="1" parent="ufFklaLvF3Zcsidc5OTK-294" source="ufFklaLvF3Zcsidc5OTK-304" target="ufFklaLvF3Zcsidc5OTK-307">
          <mxGeometry relative="1" as="geometry" />
        </mxCell>
        <mxCell id="ufFklaLvF3Zcsidc5OTK-304" value="Queue C" style="rounded=1;whiteSpace=wrap;html=1;fontSize=11;fontStyle=1;fillColor=#191A21;" vertex="1" parent="ufFklaLvF3Zcsidc5OTK-294">
          <mxGeometry x="96" y="1130.5" width="120" height="60" as="geometry" />
        </mxCell>
        <mxCell id="ufFklaLvF3Zcsidc5OTK-305" value="Consumer A" style="ellipse;whiteSpace=wrap;html=1;aspect=fixed;fontSize=8;fontStyle=1" vertex="1" parent="ufFklaLvF3Zcsidc5OTK-294">
          <mxGeometry x="323" y="961" width="64" height="64" as="geometry" />
        </mxCell>
        <mxCell id="ufFklaLvF3Zcsidc5OTK-306" value="Consumer B" style="ellipse;whiteSpace=wrap;html=1;aspect=fixed;fontSize=8;fontStyle=1" vertex="1" parent="ufFklaLvF3Zcsidc5OTK-294">
          <mxGeometry x="323" y="1051" width="64" height="64" as="geometry" />
        </mxCell>
        <mxCell id="ufFklaLvF3Zcsidc5OTK-307" value="Consumer C" style="ellipse;whiteSpace=wrap;html=1;aspect=fixed;fontSize=8;fontStyle=1" vertex="1" parent="ufFklaLvF3Zcsidc5OTK-294">
          <mxGeometry x="323" y="1128.5" width="64" height="64" as="geometry" />
        </mxCell>
        <mxCell id="ufFklaLvF3Zcsidc5OTK-308" value="Routing Key: &lt;font color=&quot;#ff33ff&quot;&gt;&lt;b&gt;X&lt;/b&gt;&lt;/font&gt;" style="text;strokeColor=none;fillColor=none;html=1;align=center;verticalAlign=middle;whiteSpace=wrap;rounded=0;fontSize=9;rotation=-30;" vertex="1" parent="ufFklaLvF3Zcsidc5OTK-294">
          <mxGeometry x="-28" y="1001" width="82" height="30" as="geometry" />
        </mxCell>
        <mxCell id="ufFklaLvF3Zcsidc5OTK-309" value="Routing Key: &lt;b&gt;&lt;font color=&quot;#ff33ff&quot;&gt;Z&lt;/font&gt;&lt;/b&gt;" style="text;strokeColor=none;fillColor=none;html=1;align=center;verticalAlign=middle;whiteSpace=wrap;rounded=0;fontSize=9;rotation=28;" vertex="1" parent="ufFklaLvF3Zcsidc5OTK-294">
          <mxGeometry x="-22" y="1126" width="82" height="30" as="geometry" />
        </mxCell>
        <mxCell id="ufFklaLvF3Zcsidc5OTK-310" value="Routing Key: &lt;font color=&quot;#ff33ff&quot;&gt;&lt;b&gt;Y&lt;/b&gt;&lt;/font&gt;" style="text;strokeColor=none;fillColor=none;html=1;align=center;verticalAlign=middle;whiteSpace=wrap;rounded=0;fontSize=9;rotation=0;" vertex="1" parent="ufFklaLvF3Zcsidc5OTK-294">
          <mxGeometry x="-12.160000000000025" y="1051" width="82" height="30" as="geometry" />
        </mxCell>
        <mxCell id="ufFklaLvF3Zcsidc5OTK-311" value="Producer" style="ellipse;whiteSpace=wrap;html=1;aspect=fixed;fontSize=10;fontStyle=1" vertex="1" parent="ufFklaLvF3Zcsidc5OTK-294">
          <mxGeometry x="-298" y="1038" width="80" height="80" as="geometry" />
        </mxCell>
        <mxCell id="ufFklaLvF3Zcsidc5OTK-312" value="" style="endArrow=block;html=1;rounded=0;fontSize=12;startSize=8;endSize=8;curved=1;endFill=1;strokeWidth=1;flowAnimation=0;strokeColor=#FFFFFF;" edge="1" parent="ufFklaLvF3Zcsidc5OTK-294">
          <mxGeometry relative="1" as="geometry">
            <mxPoint x="-218" y="1077.9" as="sourcePoint" />
            <mxPoint x="-118" y="1077.9" as="targetPoint" />
          </mxGeometry>
        </mxCell>
        <mxCell id="ufFklaLvF3Zcsidc5OTK-313" value="" style="shape=message;html=1;outlineConnect=0;fontSize=16;" vertex="1" parent="ufFklaLvF3Zcsidc5OTK-294">
          <mxGeometry x="258" y="986" width="20" height="14" as="geometry" />
        </mxCell>
        <mxCell id="ufFklaLvF3Zcsidc5OTK-274" value="camada11" style="" visible="0" parent="0" />
        <mxCell id="ufFklaLvF3Zcsidc5OTK-275" style="edgeStyle=none;curved=1;rounded=0;orthogonalLoop=1;jettySize=auto;html=1;fontSize=12;startSize=8;endSize=8;endArrow=block;endFill=1;strokeWidth=1;strokeColor=#FFFFFF;flowAnimation=0;" edge="1" parent="ufFklaLvF3Zcsidc5OTK-274" source="ufFklaLvF3Zcsidc5OTK-278" target="ufFklaLvF3Zcsidc5OTK-282">
          <mxGeometry relative="1" as="geometry" />
        </mxCell>
        <mxCell id="ufFklaLvF3Zcsidc5OTK-276" style="edgeStyle=none;curved=1;rounded=0;orthogonalLoop=1;jettySize=auto;html=1;entryX=0;entryY=0.5;entryDx=0;entryDy=0;fontSize=12;startSize=8;endSize=8;endArrow=block;endFill=1;strokeWidth=1;strokeColor=#FFFFFF;flowAnimation=0;" edge="1" parent="ufFklaLvF3Zcsidc5OTK-274" source="ufFklaLvF3Zcsidc5OTK-278" target="ufFklaLvF3Zcsidc5OTK-280">
          <mxGeometry relative="1" as="geometry" />
        </mxCell>
        <mxCell id="ufFklaLvF3Zcsidc5OTK-277" style="edgeStyle=none;curved=1;rounded=0;orthogonalLoop=1;jettySize=auto;html=1;entryX=0;entryY=0.5;entryDx=0;entryDy=0;fontSize=12;startSize=8;endSize=8;endArrow=block;endFill=1;strokeWidth=1;strokeColor=#FFFFFF;flowAnimation=0;" edge="1" parent="ufFklaLvF3Zcsidc5OTK-274" source="ufFklaLvF3Zcsidc5OTK-278" target="ufFklaLvF3Zcsidc5OTK-284">
          <mxGeometry relative="1" as="geometry" />
        </mxCell>
        <mxCell id="ufFklaLvF3Zcsidc5OTK-278" value="Exchange" style="rhombus;whiteSpace=wrap;html=1;fontSize=15;strokeWidth=2;fontStyle=1" vertex="1" parent="ufFklaLvF3Zcsidc5OTK-274">
          <mxGeometry x="-117.15999999999997" y="1025.5" width="105" height="105" as="geometry" />
        </mxCell>
        <mxCell id="ufFklaLvF3Zcsidc5OTK-279" style="edgeStyle=none;curved=1;rounded=0;orthogonalLoop=1;jettySize=auto;html=1;fontSize=12;startSize=8;endSize=8;endArrow=block;endFill=1;strokeWidth=2;entryX=0;entryY=0.5;entryDx=0;entryDy=0;strokeColor=#3DFF1F;flowAnimation=1;" edge="1" parent="ufFklaLvF3Zcsidc5OTK-274" source="ufFklaLvF3Zcsidc5OTK-280" target="ufFklaLvF3Zcsidc5OTK-285">
          <mxGeometry relative="1" as="geometry">
            <mxPoint x="309" y="993" as="targetPoint" />
          </mxGeometry>
        </mxCell>
        <mxCell id="ufFklaLvF3Zcsidc5OTK-280" value="Queue A" style="rounded=1;whiteSpace=wrap;html=1;fontSize=11;fontStyle=1;fillColor=#191A21;" vertex="1" parent="ufFklaLvF3Zcsidc5OTK-274">
          <mxGeometry x="96" y="963" width="120" height="60" as="geometry" />
        </mxCell>
        <mxCell id="ufFklaLvF3Zcsidc5OTK-281" style="edgeStyle=none;curved=1;rounded=0;orthogonalLoop=1;jettySize=auto;html=1;fontSize=12;startSize=8;endSize=8;endArrow=block;endFill=1;strokeWidth=1;entryX=0.003;entryY=0.463;entryDx=0;entryDy=0;entryPerimeter=0;strokeColor=#FFFFFF;flowAnimation=0;" edge="1" parent="ufFklaLvF3Zcsidc5OTK-274" target="ufFklaLvF3Zcsidc5OTK-286">
          <mxGeometry relative="1" as="geometry">
            <mxPoint x="215" y="1080" as="sourcePoint" />
            <mxPoint x="314.1200000000001" y="1079.76" as="targetPoint" />
          </mxGeometry>
        </mxCell>
        <mxCell id="ufFklaLvF3Zcsidc5OTK-282" value="Queue B" style="rounded=1;whiteSpace=wrap;html=1;fontSize=11;fontStyle=1;fillColor=#191A21;" vertex="1" parent="ufFklaLvF3Zcsidc5OTK-274">
          <mxGeometry x="94" y="1048" width="120" height="60" as="geometry" />
        </mxCell>
        <mxCell id="ufFklaLvF3Zcsidc5OTK-283" style="edgeStyle=none;curved=1;rounded=0;orthogonalLoop=1;jettySize=auto;html=1;entryX=0;entryY=0.5;entryDx=0;entryDy=0;fontSize=12;startSize=8;endSize=8;endArrow=block;endFill=1;strokeColor=#FFFFFF;flowAnimation=0;strokeWidth=1;" edge="1" parent="ufFklaLvF3Zcsidc5OTK-274" source="ufFklaLvF3Zcsidc5OTK-284" target="ufFklaLvF3Zcsidc5OTK-287">
          <mxGeometry relative="1" as="geometry" />
        </mxCell>
        <mxCell id="ufFklaLvF3Zcsidc5OTK-284" value="Queue C" style="rounded=1;whiteSpace=wrap;html=1;fontSize=11;fontStyle=1;fillColor=#191A21;" vertex="1" parent="ufFklaLvF3Zcsidc5OTK-274">
          <mxGeometry x="96" y="1130.5" width="120" height="60" as="geometry" />
        </mxCell>
        <mxCell id="ufFklaLvF3Zcsidc5OTK-285" value="Consumer A" style="ellipse;whiteSpace=wrap;html=1;aspect=fixed;fontSize=8;fontStyle=1" vertex="1" parent="ufFklaLvF3Zcsidc5OTK-274">
          <mxGeometry x="323" y="961" width="64" height="64" as="geometry" />
        </mxCell>
        <mxCell id="ufFklaLvF3Zcsidc5OTK-286" value="Consumer B" style="ellipse;whiteSpace=wrap;html=1;aspect=fixed;fontSize=8;fontStyle=1" vertex="1" parent="ufFklaLvF3Zcsidc5OTK-274">
          <mxGeometry x="323" y="1051" width="64" height="64" as="geometry" />
        </mxCell>
        <mxCell id="ufFklaLvF3Zcsidc5OTK-287" value="Consumer C" style="ellipse;whiteSpace=wrap;html=1;aspect=fixed;fontSize=8;fontStyle=1" vertex="1" parent="ufFklaLvF3Zcsidc5OTK-274">
          <mxGeometry x="323" y="1128.5" width="64" height="64" as="geometry" />
        </mxCell>
        <mxCell id="ufFklaLvF3Zcsidc5OTK-288" value="Routing Key: &lt;font color=&quot;#ff33ff&quot;&gt;&lt;b&gt;X&lt;/b&gt;&lt;/font&gt;" style="text;strokeColor=none;fillColor=none;html=1;align=center;verticalAlign=middle;whiteSpace=wrap;rounded=0;fontSize=9;rotation=-30;" vertex="1" parent="ufFklaLvF3Zcsidc5OTK-274">
          <mxGeometry x="-28" y="1001" width="82" height="30" as="geometry" />
        </mxCell>
        <mxCell id="ufFklaLvF3Zcsidc5OTK-289" value="Routing Key: &lt;b&gt;&lt;font color=&quot;#ff33ff&quot;&gt;Z&lt;/font&gt;&lt;/b&gt;" style="text;strokeColor=none;fillColor=none;html=1;align=center;verticalAlign=middle;whiteSpace=wrap;rounded=0;fontSize=9;rotation=28;" vertex="1" parent="ufFklaLvF3Zcsidc5OTK-274">
          <mxGeometry x="-22" y="1126" width="82" height="30" as="geometry" />
        </mxCell>
        <mxCell id="ufFklaLvF3Zcsidc5OTK-290" value="Routing Key: &lt;font color=&quot;#ff33ff&quot;&gt;&lt;b&gt;Y&lt;/b&gt;&lt;/font&gt;" style="text;strokeColor=none;fillColor=none;html=1;align=center;verticalAlign=middle;whiteSpace=wrap;rounded=0;fontSize=9;rotation=0;" vertex="1" parent="ufFklaLvF3Zcsidc5OTK-274">
          <mxGeometry x="-12.160000000000025" y="1051" width="82" height="30" as="geometry" />
        </mxCell>
        <mxCell id="ufFklaLvF3Zcsidc5OTK-291" value="Producer" style="ellipse;whiteSpace=wrap;html=1;aspect=fixed;fontSize=10;fontStyle=1" vertex="1" parent="ufFklaLvF3Zcsidc5OTK-274">
          <mxGeometry x="-298" y="1038" width="80" height="80" as="geometry" />
        </mxCell>
        <mxCell id="ufFklaLvF3Zcsidc5OTK-292" value="" style="endArrow=block;html=1;rounded=0;fontSize=12;startSize=8;endSize=8;curved=1;endFill=1;strokeWidth=1;flowAnimation=0;strokeColor=#FFFFFF;" edge="1" parent="ufFklaLvF3Zcsidc5OTK-274">
          <mxGeometry relative="1" as="geometry">
            <mxPoint x="-218" y="1077.9" as="sourcePoint" />
            <mxPoint x="-118" y="1077.9" as="targetPoint" />
          </mxGeometry>
        </mxCell>
        <mxCell id="ufFklaLvF3Zcsidc5OTK-293" value="" style="shape=message;html=1;outlineConnect=0;fontSize=16;" vertex="1" parent="ufFklaLvF3Zcsidc5OTK-274">
          <mxGeometry x="219" y="986" width="20" height="14" as="geometry" />
        </mxCell>
        <mxCell id="ufFklaLvF3Zcsidc5OTK-255" value="camada10" style="" visible="0" parent="0" />
        <mxCell id="ufFklaLvF3Zcsidc5OTK-256" style="edgeStyle=none;curved=1;rounded=0;orthogonalLoop=1;jettySize=auto;html=1;fontSize=12;startSize=8;endSize=8;endArrow=block;endFill=1;strokeWidth=1;strokeColor=#FFFFFF;flowAnimation=0;" edge="1" parent="ufFklaLvF3Zcsidc5OTK-255" source="ufFklaLvF3Zcsidc5OTK-259" target="ufFklaLvF3Zcsidc5OTK-263">
          <mxGeometry relative="1" as="geometry" />
        </mxCell>
        <mxCell id="ufFklaLvF3Zcsidc5OTK-257" style="edgeStyle=none;curved=1;rounded=0;orthogonalLoop=1;jettySize=auto;html=1;entryX=0;entryY=0.5;entryDx=0;entryDy=0;fontSize=12;startSize=8;endSize=8;endArrow=block;endFill=1;strokeWidth=1;strokeColor=#FFFFFF;flowAnimation=0;" edge="1" parent="ufFklaLvF3Zcsidc5OTK-255" source="ufFklaLvF3Zcsidc5OTK-259" target="ufFklaLvF3Zcsidc5OTK-261">
          <mxGeometry relative="1" as="geometry" />
        </mxCell>
        <mxCell id="ufFklaLvF3Zcsidc5OTK-258" style="edgeStyle=none;curved=1;rounded=0;orthogonalLoop=1;jettySize=auto;html=1;entryX=0;entryY=0.5;entryDx=0;entryDy=0;fontSize=12;startSize=8;endSize=8;endArrow=block;endFill=1;strokeWidth=1;strokeColor=#FFFFFF;flowAnimation=0;" edge="1" parent="ufFklaLvF3Zcsidc5OTK-255" source="ufFklaLvF3Zcsidc5OTK-259" target="ufFklaLvF3Zcsidc5OTK-265">
          <mxGeometry relative="1" as="geometry" />
        </mxCell>
        <mxCell id="ufFklaLvF3Zcsidc5OTK-259" value="Exchange" style="rhombus;whiteSpace=wrap;html=1;fontSize=15;strokeWidth=2;fontStyle=1" vertex="1" parent="ufFklaLvF3Zcsidc5OTK-255">
          <mxGeometry x="-117.15999999999997" y="1025.5" width="105" height="105" as="geometry" />
        </mxCell>
        <mxCell id="ufFklaLvF3Zcsidc5OTK-260" style="edgeStyle=none;curved=1;rounded=0;orthogonalLoop=1;jettySize=auto;html=1;fontSize=12;startSize=8;endSize=8;endArrow=block;endFill=1;strokeWidth=2;entryX=0;entryY=0.5;entryDx=0;entryDy=0;strokeColor=#3DFF1F;flowAnimation=1;" edge="1" parent="ufFklaLvF3Zcsidc5OTK-255" source="ufFklaLvF3Zcsidc5OTK-261" target="ufFklaLvF3Zcsidc5OTK-266">
          <mxGeometry relative="1" as="geometry">
            <mxPoint x="309" y="993" as="targetPoint" />
          </mxGeometry>
        </mxCell>
        <mxCell id="ufFklaLvF3Zcsidc5OTK-261" value="Queue A" style="rounded=1;whiteSpace=wrap;html=1;fontSize=11;fontStyle=1;fillColor=#191A21;" vertex="1" parent="ufFklaLvF3Zcsidc5OTK-255">
          <mxGeometry x="96" y="963" width="120" height="60" as="geometry" />
        </mxCell>
        <mxCell id="ufFklaLvF3Zcsidc5OTK-262" style="edgeStyle=none;curved=1;rounded=0;orthogonalLoop=1;jettySize=auto;html=1;fontSize=12;startSize=8;endSize=8;endArrow=block;endFill=1;strokeWidth=1;entryX=0.003;entryY=0.463;entryDx=0;entryDy=0;entryPerimeter=0;strokeColor=#FFFFFF;flowAnimation=0;" edge="1" parent="ufFklaLvF3Zcsidc5OTK-255" target="ufFklaLvF3Zcsidc5OTK-267">
          <mxGeometry relative="1" as="geometry">
            <mxPoint x="215" y="1080" as="sourcePoint" />
            <mxPoint x="314.1200000000001" y="1079.76" as="targetPoint" />
          </mxGeometry>
        </mxCell>
        <mxCell id="ufFklaLvF3Zcsidc5OTK-263" value="Queue B" style="rounded=1;whiteSpace=wrap;html=1;fontSize=11;fontStyle=1;fillColor=#191A21;" vertex="1" parent="ufFklaLvF3Zcsidc5OTK-255">
          <mxGeometry x="94" y="1048" width="120" height="60" as="geometry" />
        </mxCell>
        <mxCell id="ufFklaLvF3Zcsidc5OTK-264" style="edgeStyle=none;curved=1;rounded=0;orthogonalLoop=1;jettySize=auto;html=1;entryX=0;entryY=0.5;entryDx=0;entryDy=0;fontSize=12;startSize=8;endSize=8;endArrow=block;endFill=1;strokeColor=#FFFFFF;flowAnimation=0;strokeWidth=1;" edge="1" parent="ufFklaLvF3Zcsidc5OTK-255" source="ufFklaLvF3Zcsidc5OTK-265" target="ufFklaLvF3Zcsidc5OTK-268">
          <mxGeometry relative="1" as="geometry" />
        </mxCell>
        <mxCell id="ufFklaLvF3Zcsidc5OTK-265" value="Queue C" style="rounded=1;whiteSpace=wrap;html=1;fontSize=11;fontStyle=1;fillColor=#191A21;" vertex="1" parent="ufFklaLvF3Zcsidc5OTK-255">
          <mxGeometry x="96" y="1130.5" width="120" height="60" as="geometry" />
        </mxCell>
        <mxCell id="ufFklaLvF3Zcsidc5OTK-266" value="Consumer A" style="ellipse;whiteSpace=wrap;html=1;aspect=fixed;fontSize=8;fontStyle=1" vertex="1" parent="ufFklaLvF3Zcsidc5OTK-255">
          <mxGeometry x="323" y="961" width="64" height="64" as="geometry" />
        </mxCell>
        <mxCell id="ufFklaLvF3Zcsidc5OTK-267" value="Consumer B" style="ellipse;whiteSpace=wrap;html=1;aspect=fixed;fontSize=8;fontStyle=1" vertex="1" parent="ufFklaLvF3Zcsidc5OTK-255">
          <mxGeometry x="323" y="1051" width="64" height="64" as="geometry" />
        </mxCell>
        <mxCell id="ufFklaLvF3Zcsidc5OTK-268" value="Consumer C" style="ellipse;whiteSpace=wrap;html=1;aspect=fixed;fontSize=8;fontStyle=1" vertex="1" parent="ufFklaLvF3Zcsidc5OTK-255">
          <mxGeometry x="323" y="1128.5" width="64" height="64" as="geometry" />
        </mxCell>
        <mxCell id="ufFklaLvF3Zcsidc5OTK-269" value="Routing Key: &lt;font color=&quot;#ff33ff&quot;&gt;&lt;b&gt;X&lt;/b&gt;&lt;/font&gt;" style="text;strokeColor=none;fillColor=none;html=1;align=center;verticalAlign=middle;whiteSpace=wrap;rounded=0;fontSize=9;rotation=-30;" vertex="1" parent="ufFklaLvF3Zcsidc5OTK-255">
          <mxGeometry x="-28" y="1001" width="82" height="30" as="geometry" />
        </mxCell>
        <mxCell id="ufFklaLvF3Zcsidc5OTK-270" value="Routing Key: &lt;b&gt;&lt;font color=&quot;#ff33ff&quot;&gt;Z&lt;/font&gt;&lt;/b&gt;" style="text;strokeColor=none;fillColor=none;html=1;align=center;verticalAlign=middle;whiteSpace=wrap;rounded=0;fontSize=9;rotation=28;" vertex="1" parent="ufFklaLvF3Zcsidc5OTK-255">
          <mxGeometry x="-22" y="1126" width="82" height="30" as="geometry" />
        </mxCell>
        <mxCell id="ufFklaLvF3Zcsidc5OTK-271" value="Routing Key: &lt;font color=&quot;#ff33ff&quot;&gt;&lt;b&gt;Y&lt;/b&gt;&lt;/font&gt;" style="text;strokeColor=none;fillColor=none;html=1;align=center;verticalAlign=middle;whiteSpace=wrap;rounded=0;fontSize=9;rotation=0;" vertex="1" parent="ufFklaLvF3Zcsidc5OTK-255">
          <mxGeometry x="-12.160000000000025" y="1051" width="82" height="30" as="geometry" />
        </mxCell>
        <mxCell id="ufFklaLvF3Zcsidc5OTK-272" value="Producer" style="ellipse;whiteSpace=wrap;html=1;aspect=fixed;fontSize=10;fontStyle=1" vertex="1" parent="ufFklaLvF3Zcsidc5OTK-255">
          <mxGeometry x="-298" y="1038" width="80" height="80" as="geometry" />
        </mxCell>
        <mxCell id="ufFklaLvF3Zcsidc5OTK-273" value="" style="endArrow=block;html=1;rounded=0;fontSize=12;startSize=8;endSize=8;curved=1;endFill=1;strokeWidth=1;flowAnimation=0;strokeColor=#FFFFFF;" edge="1" parent="ufFklaLvF3Zcsidc5OTK-255">
          <mxGeometry relative="1" as="geometry">
            <mxPoint x="-218" y="1077.9" as="sourcePoint" />
            <mxPoint x="-118" y="1077.9" as="targetPoint" />
          </mxGeometry>
        </mxCell>
        <mxCell id="ufFklaLvF3Zcsidc5OTK-235" value="camada9" style="" visible="0" parent="0" />
        <mxCell id="ufFklaLvF3Zcsidc5OTK-236" style="edgeStyle=none;curved=1;rounded=0;orthogonalLoop=1;jettySize=auto;html=1;fontSize=12;startSize=8;endSize=8;endArrow=block;endFill=1;strokeWidth=1;strokeColor=#FFFFFF;flowAnimation=0;" edge="1" parent="ufFklaLvF3Zcsidc5OTK-235" source="ufFklaLvF3Zcsidc5OTK-239" target="ufFklaLvF3Zcsidc5OTK-243">
          <mxGeometry relative="1" as="geometry" />
        </mxCell>
        <mxCell id="ufFklaLvF3Zcsidc5OTK-237" style="edgeStyle=none;curved=1;rounded=0;orthogonalLoop=1;jettySize=auto;html=1;entryX=0;entryY=0.5;entryDx=0;entryDy=0;fontSize=12;startSize=8;endSize=8;endArrow=block;endFill=1;strokeWidth=1;strokeColor=#FFFFFF;flowAnimation=0;" edge="1" parent="ufFklaLvF3Zcsidc5OTK-235" source="ufFklaLvF3Zcsidc5OTK-239" target="ufFklaLvF3Zcsidc5OTK-241">
          <mxGeometry relative="1" as="geometry" />
        </mxCell>
        <mxCell id="ufFklaLvF3Zcsidc5OTK-238" style="edgeStyle=none;curved=1;rounded=0;orthogonalLoop=1;jettySize=auto;html=1;entryX=0;entryY=0.5;entryDx=0;entryDy=0;fontSize=12;startSize=8;endSize=8;endArrow=block;endFill=1;strokeWidth=1;strokeColor=#FFFFFF;flowAnimation=0;" edge="1" parent="ufFklaLvF3Zcsidc5OTK-235" source="ufFklaLvF3Zcsidc5OTK-239" target="ufFklaLvF3Zcsidc5OTK-245">
          <mxGeometry relative="1" as="geometry" />
        </mxCell>
        <mxCell id="ufFklaLvF3Zcsidc5OTK-239" value="Exchange" style="rhombus;whiteSpace=wrap;html=1;fontSize=15;strokeWidth=2;fontStyle=1" vertex="1" parent="ufFklaLvF3Zcsidc5OTK-235">
          <mxGeometry x="-117.15999999999997" y="1025.5" width="105" height="105" as="geometry" />
        </mxCell>
        <mxCell id="ufFklaLvF3Zcsidc5OTK-240" style="edgeStyle=none;curved=1;rounded=0;orthogonalLoop=1;jettySize=auto;html=1;fontSize=12;startSize=8;endSize=8;endArrow=block;endFill=1;strokeWidth=1;entryX=0;entryY=0.5;entryDx=0;entryDy=0;strokeColor=#FFFFFF;flowAnimation=0;" edge="1" parent="ufFklaLvF3Zcsidc5OTK-235" source="ufFklaLvF3Zcsidc5OTK-241" target="ufFklaLvF3Zcsidc5OTK-246">
          <mxGeometry relative="1" as="geometry">
            <mxPoint x="309" y="993" as="targetPoint" />
          </mxGeometry>
        </mxCell>
        <mxCell id="ufFklaLvF3Zcsidc5OTK-241" value="Queue A" style="rounded=1;whiteSpace=wrap;html=1;fontSize=11;fontStyle=1;fillColor=#191A21;" vertex="1" parent="ufFklaLvF3Zcsidc5OTK-235">
          <mxGeometry x="96" y="963" width="120" height="60" as="geometry" />
        </mxCell>
        <mxCell id="ufFklaLvF3Zcsidc5OTK-242" style="edgeStyle=none;curved=1;rounded=0;orthogonalLoop=1;jettySize=auto;html=1;fontSize=12;startSize=8;endSize=8;endArrow=block;endFill=1;strokeWidth=1;entryX=0.003;entryY=0.463;entryDx=0;entryDy=0;entryPerimeter=0;strokeColor=#FFFFFF;flowAnimation=0;" edge="1" parent="ufFklaLvF3Zcsidc5OTK-235" target="ufFklaLvF3Zcsidc5OTK-247">
          <mxGeometry relative="1" as="geometry">
            <mxPoint x="215" y="1080" as="sourcePoint" />
            <mxPoint x="314.1200000000001" y="1079.76" as="targetPoint" />
          </mxGeometry>
        </mxCell>
        <mxCell id="ufFklaLvF3Zcsidc5OTK-243" value="Queue B" style="rounded=1;whiteSpace=wrap;html=1;fontSize=11;fontStyle=1;fillColor=#191A21;" vertex="1" parent="ufFklaLvF3Zcsidc5OTK-235">
          <mxGeometry x="94" y="1048" width="120" height="60" as="geometry" />
        </mxCell>
        <mxCell id="ufFklaLvF3Zcsidc5OTK-244" style="edgeStyle=none;curved=1;rounded=0;orthogonalLoop=1;jettySize=auto;html=1;entryX=0;entryY=0.5;entryDx=0;entryDy=0;fontSize=12;startSize=8;endSize=8;endArrow=block;endFill=1;strokeColor=#FFFFFF;flowAnimation=0;strokeWidth=1;" edge="1" parent="ufFklaLvF3Zcsidc5OTK-235" source="ufFklaLvF3Zcsidc5OTK-245" target="ufFklaLvF3Zcsidc5OTK-248">
          <mxGeometry relative="1" as="geometry" />
        </mxCell>
        <mxCell id="ufFklaLvF3Zcsidc5OTK-245" value="Queue C" style="rounded=1;whiteSpace=wrap;html=1;fontSize=11;fontStyle=1;fillColor=#191A21;" vertex="1" parent="ufFklaLvF3Zcsidc5OTK-235">
          <mxGeometry x="96" y="1130.5" width="120" height="60" as="geometry" />
        </mxCell>
        <mxCell id="ufFklaLvF3Zcsidc5OTK-246" value="Consumer A" style="ellipse;whiteSpace=wrap;html=1;aspect=fixed;fontSize=8;fontStyle=1" vertex="1" parent="ufFklaLvF3Zcsidc5OTK-235">
          <mxGeometry x="323" y="961" width="64" height="64" as="geometry" />
        </mxCell>
        <mxCell id="ufFklaLvF3Zcsidc5OTK-247" value="Consumer B" style="ellipse;whiteSpace=wrap;html=1;aspect=fixed;fontSize=8;fontStyle=1" vertex="1" parent="ufFklaLvF3Zcsidc5OTK-235">
          <mxGeometry x="323" y="1051" width="64" height="64" as="geometry" />
        </mxCell>
        <mxCell id="ufFklaLvF3Zcsidc5OTK-248" value="Consumer C" style="ellipse;whiteSpace=wrap;html=1;aspect=fixed;fontSize=8;fontStyle=1" vertex="1" parent="ufFklaLvF3Zcsidc5OTK-235">
          <mxGeometry x="323" y="1128.5" width="64" height="64" as="geometry" />
        </mxCell>
        <mxCell id="ufFklaLvF3Zcsidc5OTK-249" value="Routing Key: &lt;font color=&quot;#ff33ff&quot;&gt;&lt;b&gt;X&lt;/b&gt;&lt;/font&gt;" style="text;strokeColor=none;fillColor=none;html=1;align=center;verticalAlign=middle;whiteSpace=wrap;rounded=0;fontSize=9;rotation=-30;" vertex="1" parent="ufFklaLvF3Zcsidc5OTK-235">
          <mxGeometry x="-28" y="1001" width="82" height="30" as="geometry" />
        </mxCell>
        <mxCell id="ufFklaLvF3Zcsidc5OTK-250" value="Routing Key: &lt;b&gt;&lt;font color=&quot;#ff33ff&quot;&gt;Z&lt;/font&gt;&lt;/b&gt;" style="text;strokeColor=none;fillColor=none;html=1;align=center;verticalAlign=middle;whiteSpace=wrap;rounded=0;fontSize=9;rotation=28;" vertex="1" parent="ufFklaLvF3Zcsidc5OTK-235">
          <mxGeometry x="-22" y="1126" width="82" height="30" as="geometry" />
        </mxCell>
        <mxCell id="ufFklaLvF3Zcsidc5OTK-251" value="Routing Key: &lt;font color=&quot;#ff33ff&quot;&gt;&lt;b&gt;Y&lt;/b&gt;&lt;/font&gt;" style="text;strokeColor=none;fillColor=none;html=1;align=center;verticalAlign=middle;whiteSpace=wrap;rounded=0;fontSize=9;rotation=0;" vertex="1" parent="ufFklaLvF3Zcsidc5OTK-235">
          <mxGeometry x="-12.160000000000025" y="1051" width="82" height="30" as="geometry" />
        </mxCell>
        <mxCell id="ufFklaLvF3Zcsidc5OTK-252" value="Producer" style="ellipse;whiteSpace=wrap;html=1;aspect=fixed;fontSize=10;fontStyle=1" vertex="1" parent="ufFklaLvF3Zcsidc5OTK-235">
          <mxGeometry x="-298" y="1038" width="80" height="80" as="geometry" />
        </mxCell>
        <mxCell id="ufFklaLvF3Zcsidc5OTK-253" value="" style="endArrow=block;html=1;rounded=0;fontSize=12;startSize=8;endSize=8;curved=1;endFill=1;strokeWidth=1;flowAnimation=0;strokeColor=#FFFFFF;" edge="1" parent="ufFklaLvF3Zcsidc5OTK-235">
          <mxGeometry relative="1" as="geometry">
            <mxPoint x="-218" y="1077.9" as="sourcePoint" />
            <mxPoint x="-118" y="1077.9" as="targetPoint" />
          </mxGeometry>
        </mxCell>
        <mxCell id="ufFklaLvF3Zcsidc5OTK-214" value="camada8" style="" visible="0" parent="0" />
        <mxCell id="ufFklaLvF3Zcsidc5OTK-215" style="edgeStyle=none;curved=1;rounded=0;orthogonalLoop=1;jettySize=auto;html=1;fontSize=12;startSize=8;endSize=8;endArrow=block;endFill=1;strokeWidth=1;strokeColor=#FFFFFF;flowAnimation=0;" edge="1" parent="ufFklaLvF3Zcsidc5OTK-214" source="ufFklaLvF3Zcsidc5OTK-218" target="ufFklaLvF3Zcsidc5OTK-222">
          <mxGeometry relative="1" as="geometry" />
        </mxCell>
        <mxCell id="ufFklaLvF3Zcsidc5OTK-216" style="edgeStyle=none;curved=1;rounded=0;orthogonalLoop=1;jettySize=auto;html=1;entryX=0;entryY=0.5;entryDx=0;entryDy=0;fontSize=12;startSize=8;endSize=8;endArrow=block;endFill=1;strokeWidth=2;strokeColor=#3DFF1F;flowAnimation=1;" edge="1" parent="ufFklaLvF3Zcsidc5OTK-214" source="ufFklaLvF3Zcsidc5OTK-218" target="ufFklaLvF3Zcsidc5OTK-220">
          <mxGeometry relative="1" as="geometry" />
        </mxCell>
        <mxCell id="ufFklaLvF3Zcsidc5OTK-217" style="edgeStyle=none;curved=1;rounded=0;orthogonalLoop=1;jettySize=auto;html=1;entryX=0;entryY=0.5;entryDx=0;entryDy=0;fontSize=12;startSize=8;endSize=8;endArrow=block;endFill=1;strokeWidth=1;strokeColor=#FFFFFF;flowAnimation=0;" edge="1" parent="ufFklaLvF3Zcsidc5OTK-214" source="ufFklaLvF3Zcsidc5OTK-218" target="ufFklaLvF3Zcsidc5OTK-224">
          <mxGeometry relative="1" as="geometry" />
        </mxCell>
        <mxCell id="ufFklaLvF3Zcsidc5OTK-218" value="Exchange" style="rhombus;whiteSpace=wrap;html=1;fontSize=15;strokeWidth=2;fontStyle=1" vertex="1" parent="ufFklaLvF3Zcsidc5OTK-214">
          <mxGeometry x="-117.15999999999997" y="1025.5" width="105" height="105" as="geometry" />
        </mxCell>
        <mxCell id="ufFklaLvF3Zcsidc5OTK-219" style="edgeStyle=none;curved=1;rounded=0;orthogonalLoop=1;jettySize=auto;html=1;fontSize=12;startSize=8;endSize=8;endArrow=block;endFill=1;strokeWidth=1;entryX=0;entryY=0.5;entryDx=0;entryDy=0;strokeColor=#FFFFFF;flowAnimation=0;" edge="1" parent="ufFklaLvF3Zcsidc5OTK-214" source="ufFklaLvF3Zcsidc5OTK-220" target="ufFklaLvF3Zcsidc5OTK-225">
          <mxGeometry relative="1" as="geometry">
            <mxPoint x="309" y="993" as="targetPoint" />
          </mxGeometry>
        </mxCell>
        <mxCell id="ufFklaLvF3Zcsidc5OTK-220" value="Queue A" style="rounded=1;whiteSpace=wrap;html=1;fontSize=11;fontStyle=1;fillColor=#191A21;" vertex="1" parent="ufFklaLvF3Zcsidc5OTK-214">
          <mxGeometry x="96" y="963" width="120" height="60" as="geometry" />
        </mxCell>
        <mxCell id="ufFklaLvF3Zcsidc5OTK-221" style="edgeStyle=none;curved=1;rounded=0;orthogonalLoop=1;jettySize=auto;html=1;fontSize=12;startSize=8;endSize=8;endArrow=block;endFill=1;strokeWidth=1;entryX=0.003;entryY=0.463;entryDx=0;entryDy=0;entryPerimeter=0;strokeColor=#FFFFFF;flowAnimation=0;" edge="1" parent="ufFklaLvF3Zcsidc5OTK-214" target="ufFklaLvF3Zcsidc5OTK-226">
          <mxGeometry relative="1" as="geometry">
            <mxPoint x="215" y="1080" as="sourcePoint" />
            <mxPoint x="314.1200000000001" y="1079.76" as="targetPoint" />
          </mxGeometry>
        </mxCell>
        <mxCell id="ufFklaLvF3Zcsidc5OTK-222" value="Queue B" style="rounded=1;whiteSpace=wrap;html=1;fontSize=11;fontStyle=1;fillColor=#191A21;" vertex="1" parent="ufFklaLvF3Zcsidc5OTK-214">
          <mxGeometry x="94" y="1048" width="120" height="60" as="geometry" />
        </mxCell>
        <mxCell id="ufFklaLvF3Zcsidc5OTK-223" style="edgeStyle=none;curved=1;rounded=0;orthogonalLoop=1;jettySize=auto;html=1;entryX=0;entryY=0.5;entryDx=0;entryDy=0;fontSize=12;startSize=8;endSize=8;endArrow=block;endFill=1;strokeColor=#FFFFFF;flowAnimation=0;strokeWidth=1;" edge="1" parent="ufFklaLvF3Zcsidc5OTK-214" source="ufFklaLvF3Zcsidc5OTK-224" target="ufFklaLvF3Zcsidc5OTK-227">
          <mxGeometry relative="1" as="geometry" />
        </mxCell>
        <mxCell id="ufFklaLvF3Zcsidc5OTK-224" value="Queue C" style="rounded=1;whiteSpace=wrap;html=1;fontSize=11;fontStyle=1;fillColor=#191A21;" vertex="1" parent="ufFklaLvF3Zcsidc5OTK-214">
          <mxGeometry x="96" y="1130.5" width="120" height="60" as="geometry" />
        </mxCell>
        <mxCell id="ufFklaLvF3Zcsidc5OTK-225" value="Consumer A" style="ellipse;whiteSpace=wrap;html=1;aspect=fixed;fontSize=8;fontStyle=1" vertex="1" parent="ufFklaLvF3Zcsidc5OTK-214">
          <mxGeometry x="323" y="961" width="64" height="64" as="geometry" />
        </mxCell>
        <mxCell id="ufFklaLvF3Zcsidc5OTK-226" value="Consumer B" style="ellipse;whiteSpace=wrap;html=1;aspect=fixed;fontSize=8;fontStyle=1" vertex="1" parent="ufFklaLvF3Zcsidc5OTK-214">
          <mxGeometry x="323" y="1051" width="64" height="64" as="geometry" />
        </mxCell>
        <mxCell id="ufFklaLvF3Zcsidc5OTK-227" value="Consumer C" style="ellipse;whiteSpace=wrap;html=1;aspect=fixed;fontSize=8;fontStyle=1" vertex="1" parent="ufFklaLvF3Zcsidc5OTK-214">
          <mxGeometry x="323" y="1128.5" width="64" height="64" as="geometry" />
        </mxCell>
        <mxCell id="ufFklaLvF3Zcsidc5OTK-228" value="Routing Key: &lt;font color=&quot;#ff33ff&quot;&gt;&lt;b&gt;X&lt;/b&gt;&lt;/font&gt;" style="text;strokeColor=none;fillColor=none;html=1;align=center;verticalAlign=middle;whiteSpace=wrap;rounded=0;fontSize=9;rotation=-30;" vertex="1" parent="ufFklaLvF3Zcsidc5OTK-214">
          <mxGeometry x="-28" y="1001" width="82" height="30" as="geometry" />
        </mxCell>
        <mxCell id="ufFklaLvF3Zcsidc5OTK-229" value="Routing Key: &lt;b&gt;&lt;font color=&quot;#ff33ff&quot;&gt;Z&lt;/font&gt;&lt;/b&gt;" style="text;strokeColor=none;fillColor=none;html=1;align=center;verticalAlign=middle;whiteSpace=wrap;rounded=0;fontSize=9;rotation=28;" vertex="1" parent="ufFklaLvF3Zcsidc5OTK-214">
          <mxGeometry x="-22" y="1126" width="82" height="30" as="geometry" />
        </mxCell>
        <mxCell id="ufFklaLvF3Zcsidc5OTK-230" value="Routing Key: &lt;font color=&quot;#ff33ff&quot;&gt;&lt;b&gt;Y&lt;/b&gt;&lt;/font&gt;" style="text;strokeColor=none;fillColor=none;html=1;align=center;verticalAlign=middle;whiteSpace=wrap;rounded=0;fontSize=9;rotation=0;" vertex="1" parent="ufFklaLvF3Zcsidc5OTK-214">
          <mxGeometry x="-12.160000000000025" y="1051" width="82" height="30" as="geometry" />
        </mxCell>
        <mxCell id="ufFklaLvF3Zcsidc5OTK-231" value="Producer" style="ellipse;whiteSpace=wrap;html=1;aspect=fixed;fontSize=10;fontStyle=1" vertex="1" parent="ufFklaLvF3Zcsidc5OTK-214">
          <mxGeometry x="-298" y="1038" width="80" height="80" as="geometry" />
        </mxCell>
        <mxCell id="ufFklaLvF3Zcsidc5OTK-232" value="" style="endArrow=block;html=1;rounded=0;fontSize=12;startSize=8;endSize=8;curved=1;endFill=1;strokeWidth=1;flowAnimation=0;strokeColor=#FFFFFF;" edge="1" parent="ufFklaLvF3Zcsidc5OTK-214">
          <mxGeometry relative="1" as="geometry">
            <mxPoint x="-218" y="1077.9" as="sourcePoint" />
            <mxPoint x="-118" y="1077.9" as="targetPoint" />
          </mxGeometry>
        </mxCell>
        <mxCell id="ufFklaLvF3Zcsidc5OTK-233" value="" style="shape=message;html=1;outlineConnect=0;fontSize=16;" vertex="1" parent="ufFklaLvF3Zcsidc5OTK-214">
          <mxGeometry x="49.84" y="1007" width="20" height="14" as="geometry" />
        </mxCell>
        <mxCell id="ufFklaLvF3Zcsidc5OTK-194" value="camada7" style="" visible="0" parent="0" />
        <mxCell id="ufFklaLvF3Zcsidc5OTK-195" style="edgeStyle=none;curved=1;rounded=0;orthogonalLoop=1;jettySize=auto;html=1;fontSize=12;startSize=8;endSize=8;endArrow=block;endFill=1;strokeWidth=1;strokeColor=#FFFFFF;flowAnimation=0;" edge="1" parent="ufFklaLvF3Zcsidc5OTK-194" source="ufFklaLvF3Zcsidc5OTK-198" target="ufFklaLvF3Zcsidc5OTK-202">
          <mxGeometry relative="1" as="geometry" />
        </mxCell>
        <mxCell id="ufFklaLvF3Zcsidc5OTK-196" style="edgeStyle=none;curved=1;rounded=0;orthogonalLoop=1;jettySize=auto;html=1;entryX=0;entryY=0.5;entryDx=0;entryDy=0;fontSize=12;startSize=8;endSize=8;endArrow=block;endFill=1;strokeWidth=2;strokeColor=#3DFF1F;flowAnimation=1;" edge="1" parent="ufFklaLvF3Zcsidc5OTK-194" source="ufFklaLvF3Zcsidc5OTK-198" target="ufFklaLvF3Zcsidc5OTK-200">
          <mxGeometry relative="1" as="geometry" />
        </mxCell>
        <mxCell id="ufFklaLvF3Zcsidc5OTK-197" style="edgeStyle=none;curved=1;rounded=0;orthogonalLoop=1;jettySize=auto;html=1;entryX=0;entryY=0.5;entryDx=0;entryDy=0;fontSize=12;startSize=8;endSize=8;endArrow=block;endFill=1;strokeWidth=1;strokeColor=#FFFFFF;flowAnimation=0;" edge="1" parent="ufFklaLvF3Zcsidc5OTK-194" source="ufFklaLvF3Zcsidc5OTK-198" target="ufFklaLvF3Zcsidc5OTK-204">
          <mxGeometry relative="1" as="geometry" />
        </mxCell>
        <mxCell id="ufFklaLvF3Zcsidc5OTK-198" value="Exchange" style="rhombus;whiteSpace=wrap;html=1;fontSize=15;strokeWidth=2;fontStyle=1" vertex="1" parent="ufFklaLvF3Zcsidc5OTK-194">
          <mxGeometry x="-117.15999999999997" y="1025.5" width="105" height="105" as="geometry" />
        </mxCell>
        <mxCell id="ufFklaLvF3Zcsidc5OTK-199" style="edgeStyle=none;curved=1;rounded=0;orthogonalLoop=1;jettySize=auto;html=1;fontSize=12;startSize=8;endSize=8;endArrow=block;endFill=1;strokeWidth=1;entryX=0;entryY=0.5;entryDx=0;entryDy=0;strokeColor=#FFFFFF;flowAnimation=0;" edge="1" parent="ufFklaLvF3Zcsidc5OTK-194" source="ufFklaLvF3Zcsidc5OTK-200" target="ufFklaLvF3Zcsidc5OTK-205">
          <mxGeometry relative="1" as="geometry">
            <mxPoint x="309" y="993" as="targetPoint" />
          </mxGeometry>
        </mxCell>
        <mxCell id="ufFklaLvF3Zcsidc5OTK-200" value="Queue A" style="rounded=1;whiteSpace=wrap;html=1;fontSize=11;fontStyle=1;fillColor=#191A21;" vertex="1" parent="ufFklaLvF3Zcsidc5OTK-194">
          <mxGeometry x="96" y="963" width="120" height="60" as="geometry" />
        </mxCell>
        <mxCell id="ufFklaLvF3Zcsidc5OTK-201" style="edgeStyle=none;curved=1;rounded=0;orthogonalLoop=1;jettySize=auto;html=1;fontSize=12;startSize=8;endSize=8;endArrow=block;endFill=1;strokeWidth=1;entryX=0.003;entryY=0.463;entryDx=0;entryDy=0;entryPerimeter=0;strokeColor=#FFFFFF;flowAnimation=0;" edge="1" parent="ufFklaLvF3Zcsidc5OTK-194" target="ufFklaLvF3Zcsidc5OTK-206">
          <mxGeometry relative="1" as="geometry">
            <mxPoint x="215" y="1080" as="sourcePoint" />
            <mxPoint x="314.1200000000001" y="1079.76" as="targetPoint" />
          </mxGeometry>
        </mxCell>
        <mxCell id="ufFklaLvF3Zcsidc5OTK-202" value="Queue B" style="rounded=1;whiteSpace=wrap;html=1;fontSize=11;fontStyle=1;fillColor=#191A21;" vertex="1" parent="ufFklaLvF3Zcsidc5OTK-194">
          <mxGeometry x="94" y="1048" width="120" height="60" as="geometry" />
        </mxCell>
        <mxCell id="ufFklaLvF3Zcsidc5OTK-203" style="edgeStyle=none;curved=1;rounded=0;orthogonalLoop=1;jettySize=auto;html=1;entryX=0;entryY=0.5;entryDx=0;entryDy=0;fontSize=12;startSize=8;endSize=8;endArrow=block;endFill=1;strokeColor=#FFFFFF;flowAnimation=0;strokeWidth=1;" edge="1" parent="ufFklaLvF3Zcsidc5OTK-194" source="ufFklaLvF3Zcsidc5OTK-204" target="ufFklaLvF3Zcsidc5OTK-207">
          <mxGeometry relative="1" as="geometry" />
        </mxCell>
        <mxCell id="ufFklaLvF3Zcsidc5OTK-204" value="Queue C" style="rounded=1;whiteSpace=wrap;html=1;fontSize=11;fontStyle=1;fillColor=#191A21;" vertex="1" parent="ufFklaLvF3Zcsidc5OTK-194">
          <mxGeometry x="96" y="1130.5" width="120" height="60" as="geometry" />
        </mxCell>
        <mxCell id="ufFklaLvF3Zcsidc5OTK-205" value="Consumer A" style="ellipse;whiteSpace=wrap;html=1;aspect=fixed;fontSize=8;fontStyle=1" vertex="1" parent="ufFklaLvF3Zcsidc5OTK-194">
          <mxGeometry x="323" y="961" width="64" height="64" as="geometry" />
        </mxCell>
        <mxCell id="ufFklaLvF3Zcsidc5OTK-206" value="Consumer B" style="ellipse;whiteSpace=wrap;html=1;aspect=fixed;fontSize=8;fontStyle=1" vertex="1" parent="ufFklaLvF3Zcsidc5OTK-194">
          <mxGeometry x="323" y="1051" width="64" height="64" as="geometry" />
        </mxCell>
        <mxCell id="ufFklaLvF3Zcsidc5OTK-207" value="Consumer C" style="ellipse;whiteSpace=wrap;html=1;aspect=fixed;fontSize=8;fontStyle=1" vertex="1" parent="ufFklaLvF3Zcsidc5OTK-194">
          <mxGeometry x="323" y="1128.5" width="64" height="64" as="geometry" />
        </mxCell>
        <mxCell id="ufFklaLvF3Zcsidc5OTK-208" value="Routing Key: &lt;font color=&quot;#ff33ff&quot;&gt;&lt;b&gt;X&lt;/b&gt;&lt;/font&gt;" style="text;strokeColor=none;fillColor=none;html=1;align=center;verticalAlign=middle;whiteSpace=wrap;rounded=0;fontSize=9;rotation=-30;" vertex="1" parent="ufFklaLvF3Zcsidc5OTK-194">
          <mxGeometry x="-28" y="1001" width="82" height="30" as="geometry" />
        </mxCell>
        <mxCell id="ufFklaLvF3Zcsidc5OTK-209" value="Routing Key: &lt;b&gt;&lt;font color=&quot;#ff33ff&quot;&gt;Z&lt;/font&gt;&lt;/b&gt;" style="text;strokeColor=none;fillColor=none;html=1;align=center;verticalAlign=middle;whiteSpace=wrap;rounded=0;fontSize=9;rotation=28;" vertex="1" parent="ufFklaLvF3Zcsidc5OTK-194">
          <mxGeometry x="-22" y="1126" width="82" height="30" as="geometry" />
        </mxCell>
        <mxCell id="ufFklaLvF3Zcsidc5OTK-210" value="Routing Key: &lt;font color=&quot;#ff33ff&quot;&gt;&lt;b&gt;Y&lt;/b&gt;&lt;/font&gt;" style="text;strokeColor=none;fillColor=none;html=1;align=center;verticalAlign=middle;whiteSpace=wrap;rounded=0;fontSize=9;rotation=0;" vertex="1" parent="ufFklaLvF3Zcsidc5OTK-194">
          <mxGeometry x="-12.160000000000025" y="1051" width="82" height="30" as="geometry" />
        </mxCell>
        <mxCell id="ufFklaLvF3Zcsidc5OTK-211" value="Producer" style="ellipse;whiteSpace=wrap;html=1;aspect=fixed;fontSize=10;fontStyle=1" vertex="1" parent="ufFklaLvF3Zcsidc5OTK-194">
          <mxGeometry x="-298" y="1038" width="80" height="80" as="geometry" />
        </mxCell>
        <mxCell id="ufFklaLvF3Zcsidc5OTK-212" value="" style="endArrow=block;html=1;rounded=0;fontSize=12;startSize=8;endSize=8;curved=1;endFill=1;strokeWidth=1;flowAnimation=0;strokeColor=#FFFFFF;" edge="1" parent="ufFklaLvF3Zcsidc5OTK-194">
          <mxGeometry relative="1" as="geometry">
            <mxPoint x="-218" y="1077.9" as="sourcePoint" />
            <mxPoint x="-118" y="1077.9" as="targetPoint" />
          </mxGeometry>
        </mxCell>
        <mxCell id="ufFklaLvF3Zcsidc5OTK-213" value="" style="shape=message;html=1;outlineConnect=0;fontSize=16;" vertex="1" parent="ufFklaLvF3Zcsidc5OTK-194">
          <mxGeometry x="13" y="1025.5" width="20" height="14" as="geometry" />
        </mxCell>
        <mxCell id="ufFklaLvF3Zcsidc5OTK-173" value="camada6" style="" visible="0" parent="0" />
        <mxCell id="ufFklaLvF3Zcsidc5OTK-174" style="edgeStyle=none;curved=1;rounded=0;orthogonalLoop=1;jettySize=auto;html=1;fontSize=12;startSize=8;endSize=8;endArrow=block;endFill=1;strokeWidth=1;strokeColor=#FFFFFF;flowAnimation=0;" edge="1" parent="ufFklaLvF3Zcsidc5OTK-173" source="ufFklaLvF3Zcsidc5OTK-177" target="ufFklaLvF3Zcsidc5OTK-181">
          <mxGeometry relative="1" as="geometry" />
        </mxCell>
        <mxCell id="ufFklaLvF3Zcsidc5OTK-175" style="edgeStyle=none;curved=1;rounded=0;orthogonalLoop=1;jettySize=auto;html=1;entryX=0;entryY=0.5;entryDx=0;entryDy=0;fontSize=12;startSize=8;endSize=8;endArrow=block;endFill=1;strokeWidth=2;strokeColor=#3DFF1F;flowAnimation=1;" edge="1" parent="ufFklaLvF3Zcsidc5OTK-173" source="ufFklaLvF3Zcsidc5OTK-177" target="ufFklaLvF3Zcsidc5OTK-179">
          <mxGeometry relative="1" as="geometry" />
        </mxCell>
        <mxCell id="ufFklaLvF3Zcsidc5OTK-176" style="edgeStyle=none;curved=1;rounded=0;orthogonalLoop=1;jettySize=auto;html=1;entryX=0;entryY=0.5;entryDx=0;entryDy=0;fontSize=12;startSize=8;endSize=8;endArrow=block;endFill=1;strokeWidth=1;strokeColor=#FFFFFF;flowAnimation=0;" edge="1" parent="ufFklaLvF3Zcsidc5OTK-173" source="ufFklaLvF3Zcsidc5OTK-177" target="ufFklaLvF3Zcsidc5OTK-183">
          <mxGeometry relative="1" as="geometry" />
        </mxCell>
        <mxCell id="ufFklaLvF3Zcsidc5OTK-177" value="Exchange" style="rhombus;whiteSpace=wrap;html=1;fontSize=15;strokeWidth=2;fontStyle=1" vertex="1" parent="ufFklaLvF3Zcsidc5OTK-173">
          <mxGeometry x="-117.15999999999997" y="1025.5" width="105" height="105" as="geometry" />
        </mxCell>
        <mxCell id="ufFklaLvF3Zcsidc5OTK-178" style="edgeStyle=none;curved=1;rounded=0;orthogonalLoop=1;jettySize=auto;html=1;fontSize=12;startSize=8;endSize=8;endArrow=block;endFill=1;strokeWidth=1;entryX=0;entryY=0.5;entryDx=0;entryDy=0;strokeColor=#FFFFFF;flowAnimation=0;" edge="1" parent="ufFklaLvF3Zcsidc5OTK-173" source="ufFklaLvF3Zcsidc5OTK-179" target="ufFklaLvF3Zcsidc5OTK-184">
          <mxGeometry relative="1" as="geometry">
            <mxPoint x="309" y="993" as="targetPoint" />
          </mxGeometry>
        </mxCell>
        <mxCell id="ufFklaLvF3Zcsidc5OTK-179" value="Queue A" style="rounded=1;whiteSpace=wrap;html=1;fontSize=11;fontStyle=1;fillColor=#191A21;" vertex="1" parent="ufFklaLvF3Zcsidc5OTK-173">
          <mxGeometry x="96" y="963" width="120" height="60" as="geometry" />
        </mxCell>
        <mxCell id="ufFklaLvF3Zcsidc5OTK-180" style="edgeStyle=none;curved=1;rounded=0;orthogonalLoop=1;jettySize=auto;html=1;fontSize=12;startSize=8;endSize=8;endArrow=block;endFill=1;strokeWidth=1;entryX=0.003;entryY=0.463;entryDx=0;entryDy=0;entryPerimeter=0;strokeColor=#FFFFFF;flowAnimation=0;" edge="1" parent="ufFklaLvF3Zcsidc5OTK-173" target="ufFklaLvF3Zcsidc5OTK-185">
          <mxGeometry relative="1" as="geometry">
            <mxPoint x="215" y="1080" as="sourcePoint" />
            <mxPoint x="314.1200000000001" y="1079.76" as="targetPoint" />
          </mxGeometry>
        </mxCell>
        <mxCell id="ufFklaLvF3Zcsidc5OTK-181" value="Queue B" style="rounded=1;whiteSpace=wrap;html=1;fontSize=11;fontStyle=1;fillColor=#191A21;" vertex="1" parent="ufFklaLvF3Zcsidc5OTK-173">
          <mxGeometry x="94" y="1048" width="120" height="60" as="geometry" />
        </mxCell>
        <mxCell id="ufFklaLvF3Zcsidc5OTK-182" style="edgeStyle=none;curved=1;rounded=0;orthogonalLoop=1;jettySize=auto;html=1;entryX=0;entryY=0.5;entryDx=0;entryDy=0;fontSize=12;startSize=8;endSize=8;endArrow=block;endFill=1;strokeColor=#FFFFFF;flowAnimation=0;strokeWidth=1;" edge="1" parent="ufFklaLvF3Zcsidc5OTK-173" source="ufFklaLvF3Zcsidc5OTK-183" target="ufFklaLvF3Zcsidc5OTK-186">
          <mxGeometry relative="1" as="geometry" />
        </mxCell>
        <mxCell id="ufFklaLvF3Zcsidc5OTK-183" value="Queue C" style="rounded=1;whiteSpace=wrap;html=1;fontSize=11;fontStyle=1;fillColor=#191A21;" vertex="1" parent="ufFklaLvF3Zcsidc5OTK-173">
          <mxGeometry x="96" y="1130.5" width="120" height="60" as="geometry" />
        </mxCell>
        <mxCell id="ufFklaLvF3Zcsidc5OTK-184" value="Consumer A" style="ellipse;whiteSpace=wrap;html=1;aspect=fixed;fontSize=8;fontStyle=1" vertex="1" parent="ufFklaLvF3Zcsidc5OTK-173">
          <mxGeometry x="323" y="961" width="64" height="64" as="geometry" />
        </mxCell>
        <mxCell id="ufFklaLvF3Zcsidc5OTK-185" value="Consumer B" style="ellipse;whiteSpace=wrap;html=1;aspect=fixed;fontSize=8;fontStyle=1" vertex="1" parent="ufFklaLvF3Zcsidc5OTK-173">
          <mxGeometry x="323" y="1051" width="64" height="64" as="geometry" />
        </mxCell>
        <mxCell id="ufFklaLvF3Zcsidc5OTK-186" value="Consumer C" style="ellipse;whiteSpace=wrap;html=1;aspect=fixed;fontSize=8;fontStyle=1" vertex="1" parent="ufFklaLvF3Zcsidc5OTK-173">
          <mxGeometry x="323" y="1128.5" width="64" height="64" as="geometry" />
        </mxCell>
        <mxCell id="ufFklaLvF3Zcsidc5OTK-187" value="Routing Key: &lt;font color=&quot;#ff33ff&quot;&gt;&lt;b&gt;X&lt;/b&gt;&lt;/font&gt;" style="text;strokeColor=none;fillColor=none;html=1;align=center;verticalAlign=middle;whiteSpace=wrap;rounded=0;fontSize=9;rotation=-30;" vertex="1" parent="ufFklaLvF3Zcsidc5OTK-173">
          <mxGeometry x="-28" y="1001" width="82" height="30" as="geometry" />
        </mxCell>
        <mxCell id="ufFklaLvF3Zcsidc5OTK-188" value="Routing Key: &lt;b&gt;&lt;font color=&quot;#ff33ff&quot;&gt;Z&lt;/font&gt;&lt;/b&gt;" style="text;strokeColor=none;fillColor=none;html=1;align=center;verticalAlign=middle;whiteSpace=wrap;rounded=0;fontSize=9;rotation=28;" vertex="1" parent="ufFklaLvF3Zcsidc5OTK-173">
          <mxGeometry x="-22" y="1126" width="82" height="30" as="geometry" />
        </mxCell>
        <mxCell id="ufFklaLvF3Zcsidc5OTK-189" value="Routing Key: &lt;font color=&quot;#ff33ff&quot;&gt;&lt;b&gt;Y&lt;/b&gt;&lt;/font&gt;" style="text;strokeColor=none;fillColor=none;html=1;align=center;verticalAlign=middle;whiteSpace=wrap;rounded=0;fontSize=9;rotation=0;" vertex="1" parent="ufFklaLvF3Zcsidc5OTK-173">
          <mxGeometry x="-12.160000000000025" y="1051" width="82" height="30" as="geometry" />
        </mxCell>
        <mxCell id="ufFklaLvF3Zcsidc5OTK-190" value="Producer" style="ellipse;whiteSpace=wrap;html=1;aspect=fixed;fontSize=10;fontStyle=1" vertex="1" parent="ufFklaLvF3Zcsidc5OTK-173">
          <mxGeometry x="-298" y="1038" width="80" height="80" as="geometry" />
        </mxCell>
        <mxCell id="ufFklaLvF3Zcsidc5OTK-191" value="" style="endArrow=block;html=1;rounded=0;fontSize=12;startSize=8;endSize=8;curved=1;endFill=1;strokeWidth=1;flowAnimation=0;strokeColor=#FFFFFF;" edge="1" parent="ufFklaLvF3Zcsidc5OTK-173">
          <mxGeometry relative="1" as="geometry">
            <mxPoint x="-218" y="1077.9" as="sourcePoint" />
            <mxPoint x="-118" y="1077.9" as="targetPoint" />
          </mxGeometry>
        </mxCell>
        <mxCell id="ufFklaLvF3Zcsidc5OTK-192" value="" style="shape=message;html=1;outlineConnect=0;fontSize=16;" vertex="1" parent="ufFklaLvF3Zcsidc5OTK-173">
          <mxGeometry x="-25" y="1048" width="20" height="14" as="geometry" />
        </mxCell>
        <mxCell id="ufFklaLvF3Zcsidc5OTK-131" value="camada5" style="" visible="0" parent="0" />
        <mxCell id="ufFklaLvF3Zcsidc5OTK-132" style="edgeStyle=none;curved=1;rounded=0;orthogonalLoop=1;jettySize=auto;html=1;fontSize=12;startSize=8;endSize=8;endArrow=block;endFill=1;strokeWidth=1;strokeColor=#FFFFFF;flowAnimation=0;" edge="1" parent="ufFklaLvF3Zcsidc5OTK-131" source="ufFklaLvF3Zcsidc5OTK-135" target="ufFklaLvF3Zcsidc5OTK-139">
          <mxGeometry relative="1" as="geometry" />
        </mxCell>
        <mxCell id="ufFklaLvF3Zcsidc5OTK-133" style="edgeStyle=none;curved=1;rounded=0;orthogonalLoop=1;jettySize=auto;html=1;entryX=0;entryY=0.5;entryDx=0;entryDy=0;fontSize=12;startSize=8;endSize=8;endArrow=block;endFill=1;strokeWidth=2;strokeColor=#3DFF1F;flowAnimation=1;" edge="1" parent="ufFklaLvF3Zcsidc5OTK-131" source="ufFklaLvF3Zcsidc5OTK-135" target="ufFklaLvF3Zcsidc5OTK-137">
          <mxGeometry relative="1" as="geometry" />
        </mxCell>
        <mxCell id="ufFklaLvF3Zcsidc5OTK-134" style="edgeStyle=none;curved=1;rounded=0;orthogonalLoop=1;jettySize=auto;html=1;entryX=0;entryY=0.5;entryDx=0;entryDy=0;fontSize=12;startSize=8;endSize=8;endArrow=block;endFill=1;strokeWidth=1;strokeColor=#FFFFFF;flowAnimation=0;" edge="1" parent="ufFklaLvF3Zcsidc5OTK-131" source="ufFklaLvF3Zcsidc5OTK-135" target="ufFklaLvF3Zcsidc5OTK-141">
          <mxGeometry relative="1" as="geometry" />
        </mxCell>
        <mxCell id="ufFklaLvF3Zcsidc5OTK-135" value="Exchange" style="rhombus;whiteSpace=wrap;html=1;fontSize=15;strokeWidth=2;fontStyle=1" vertex="1" parent="ufFklaLvF3Zcsidc5OTK-131">
          <mxGeometry x="-117.15999999999997" y="1025.5" width="105" height="105" as="geometry" />
        </mxCell>
        <mxCell id="ufFklaLvF3Zcsidc5OTK-136" style="edgeStyle=none;curved=1;rounded=0;orthogonalLoop=1;jettySize=auto;html=1;fontSize=12;startSize=8;endSize=8;endArrow=block;endFill=1;strokeWidth=1;entryX=0;entryY=0.5;entryDx=0;entryDy=0;strokeColor=#FFFFFF;flowAnimation=0;" edge="1" parent="ufFklaLvF3Zcsidc5OTK-131" source="ufFklaLvF3Zcsidc5OTK-137" target="ufFklaLvF3Zcsidc5OTK-142">
          <mxGeometry relative="1" as="geometry">
            <mxPoint x="309" y="993" as="targetPoint" />
          </mxGeometry>
        </mxCell>
        <mxCell id="ufFklaLvF3Zcsidc5OTK-137" value="Queue A" style="rounded=1;whiteSpace=wrap;html=1;fontSize=11;fontStyle=1;fillColor=#191A21;" vertex="1" parent="ufFklaLvF3Zcsidc5OTK-131">
          <mxGeometry x="96" y="963" width="120" height="60" as="geometry" />
        </mxCell>
        <mxCell id="ufFklaLvF3Zcsidc5OTK-138" style="edgeStyle=none;curved=1;rounded=0;orthogonalLoop=1;jettySize=auto;html=1;fontSize=12;startSize=8;endSize=8;endArrow=block;endFill=1;strokeWidth=1;entryX=0.003;entryY=0.463;entryDx=0;entryDy=0;entryPerimeter=0;strokeColor=#FFFFFF;flowAnimation=0;" edge="1" parent="ufFklaLvF3Zcsidc5OTK-131" target="ufFklaLvF3Zcsidc5OTK-143">
          <mxGeometry relative="1" as="geometry">
            <mxPoint x="215" y="1080" as="sourcePoint" />
            <mxPoint x="314.1200000000001" y="1079.76" as="targetPoint" />
          </mxGeometry>
        </mxCell>
        <mxCell id="ufFklaLvF3Zcsidc5OTK-139" value="Queue B" style="rounded=1;whiteSpace=wrap;html=1;fontSize=11;fontStyle=1;fillColor=#191A21;" vertex="1" parent="ufFklaLvF3Zcsidc5OTK-131">
          <mxGeometry x="94" y="1048" width="120" height="60" as="geometry" />
        </mxCell>
        <mxCell id="ufFklaLvF3Zcsidc5OTK-140" style="edgeStyle=none;curved=1;rounded=0;orthogonalLoop=1;jettySize=auto;html=1;entryX=0;entryY=0.5;entryDx=0;entryDy=0;fontSize=12;startSize=8;endSize=8;endArrow=block;endFill=1;strokeColor=#FFFFFF;flowAnimation=0;strokeWidth=1;" edge="1" parent="ufFklaLvF3Zcsidc5OTK-131" source="ufFklaLvF3Zcsidc5OTK-141" target="ufFklaLvF3Zcsidc5OTK-144">
          <mxGeometry relative="1" as="geometry" />
        </mxCell>
        <mxCell id="ufFklaLvF3Zcsidc5OTK-141" value="Queue C" style="rounded=1;whiteSpace=wrap;html=1;fontSize=11;fontStyle=1;fillColor=#191A21;" vertex="1" parent="ufFklaLvF3Zcsidc5OTK-131">
          <mxGeometry x="96" y="1130.5" width="120" height="60" as="geometry" />
        </mxCell>
        <mxCell id="ufFklaLvF3Zcsidc5OTK-142" value="Consumer A" style="ellipse;whiteSpace=wrap;html=1;aspect=fixed;fontSize=8;fontStyle=1" vertex="1" parent="ufFklaLvF3Zcsidc5OTK-131">
          <mxGeometry x="323" y="961" width="64" height="64" as="geometry" />
        </mxCell>
        <mxCell id="ufFklaLvF3Zcsidc5OTK-143" value="Consumer B" style="ellipse;whiteSpace=wrap;html=1;aspect=fixed;fontSize=8;fontStyle=1" vertex="1" parent="ufFklaLvF3Zcsidc5OTK-131">
          <mxGeometry x="323" y="1051" width="64" height="64" as="geometry" />
        </mxCell>
        <mxCell id="ufFklaLvF3Zcsidc5OTK-144" value="Consumer C" style="ellipse;whiteSpace=wrap;html=1;aspect=fixed;fontSize=8;fontStyle=1" vertex="1" parent="ufFklaLvF3Zcsidc5OTK-131">
          <mxGeometry x="323" y="1128.5" width="64" height="64" as="geometry" />
        </mxCell>
        <mxCell id="ufFklaLvF3Zcsidc5OTK-145" value="Routing Key: &lt;font color=&quot;#ff33ff&quot;&gt;&lt;b&gt;X&lt;/b&gt;&lt;/font&gt;" style="text;strokeColor=none;fillColor=none;html=1;align=center;verticalAlign=middle;whiteSpace=wrap;rounded=0;fontSize=9;rotation=-30;" vertex="1" parent="ufFklaLvF3Zcsidc5OTK-131">
          <mxGeometry x="-28" y="1001" width="82" height="30" as="geometry" />
        </mxCell>
        <mxCell id="ufFklaLvF3Zcsidc5OTK-146" value="Routing Key: &lt;b&gt;&lt;font color=&quot;#ff33ff&quot;&gt;Z&lt;/font&gt;&lt;/b&gt;" style="text;strokeColor=none;fillColor=none;html=1;align=center;verticalAlign=middle;whiteSpace=wrap;rounded=0;fontSize=9;rotation=28;" vertex="1" parent="ufFklaLvF3Zcsidc5OTK-131">
          <mxGeometry x="-22" y="1126" width="82" height="30" as="geometry" />
        </mxCell>
        <mxCell id="ufFklaLvF3Zcsidc5OTK-147" value="Routing Key: &lt;font color=&quot;#ff33ff&quot;&gt;&lt;b&gt;Y&lt;/b&gt;&lt;/font&gt;" style="text;strokeColor=none;fillColor=none;html=1;align=center;verticalAlign=middle;whiteSpace=wrap;rounded=0;fontSize=9;rotation=0;" vertex="1" parent="ufFklaLvF3Zcsidc5OTK-131">
          <mxGeometry x="-12.160000000000025" y="1051" width="82" height="30" as="geometry" />
        </mxCell>
        <mxCell id="ufFklaLvF3Zcsidc5OTK-148" value="Producer" style="ellipse;whiteSpace=wrap;html=1;aspect=fixed;fontSize=10;fontStyle=1" vertex="1" parent="ufFklaLvF3Zcsidc5OTK-131">
          <mxGeometry x="-298" y="1038" width="80" height="80" as="geometry" />
        </mxCell>
        <mxCell id="ufFklaLvF3Zcsidc5OTK-149" value="" style="endArrow=block;html=1;rounded=0;fontSize=12;startSize=8;endSize=8;curved=1;endFill=1;strokeWidth=1;flowAnimation=0;strokeColor=#FFFFFF;" edge="1" parent="ufFklaLvF3Zcsidc5OTK-131">
          <mxGeometry relative="1" as="geometry">
            <mxPoint x="-218" y="1077.9" as="sourcePoint" />
            <mxPoint x="-118" y="1077.9" as="targetPoint" />
          </mxGeometry>
        </mxCell>
        <mxCell id="ufFklaLvF3Zcsidc5OTK-111" value="camada4" style="" visible="0" parent="0" />
        <mxCell id="ufFklaLvF3Zcsidc5OTK-112" style="edgeStyle=none;curved=1;rounded=0;orthogonalLoop=1;jettySize=auto;html=1;fontSize=12;startSize=8;endSize=8;endArrow=block;endFill=1;strokeWidth=1;strokeColor=#FFFFFF;flowAnimation=0;" edge="1" parent="ufFklaLvF3Zcsidc5OTK-111" source="ufFklaLvF3Zcsidc5OTK-115" target="ufFklaLvF3Zcsidc5OTK-119">
          <mxGeometry relative="1" as="geometry" />
        </mxCell>
        <mxCell id="ufFklaLvF3Zcsidc5OTK-113" style="edgeStyle=none;curved=1;rounded=0;orthogonalLoop=1;jettySize=auto;html=1;entryX=0;entryY=0.5;entryDx=0;entryDy=0;fontSize=12;startSize=8;endSize=8;endArrow=block;endFill=1;strokeWidth=1;strokeColor=#FFFFFF;flowAnimation=0;" edge="1" parent="ufFklaLvF3Zcsidc5OTK-111" source="ufFklaLvF3Zcsidc5OTK-115" target="ufFklaLvF3Zcsidc5OTK-117">
          <mxGeometry relative="1" as="geometry" />
        </mxCell>
        <mxCell id="ufFklaLvF3Zcsidc5OTK-114" style="edgeStyle=none;curved=1;rounded=0;orthogonalLoop=1;jettySize=auto;html=1;entryX=0;entryY=0.5;entryDx=0;entryDy=0;fontSize=12;startSize=8;endSize=8;endArrow=block;endFill=1;strokeWidth=1;strokeColor=#FFFFFF;flowAnimation=0;" edge="1" parent="ufFklaLvF3Zcsidc5OTK-111" source="ufFklaLvF3Zcsidc5OTK-115" target="ufFklaLvF3Zcsidc5OTK-121">
          <mxGeometry relative="1" as="geometry" />
        </mxCell>
        <mxCell id="ufFklaLvF3Zcsidc5OTK-115" value="Exchange" style="rhombus;whiteSpace=wrap;html=1;fontSize=15;strokeWidth=2;fontStyle=1" vertex="1" parent="ufFklaLvF3Zcsidc5OTK-111">
          <mxGeometry x="-117.15999999999997" y="1025.5" width="105" height="105" as="geometry" />
        </mxCell>
        <mxCell id="ufFklaLvF3Zcsidc5OTK-116" style="edgeStyle=none;curved=1;rounded=0;orthogonalLoop=1;jettySize=auto;html=1;fontSize=12;startSize=8;endSize=8;endArrow=block;endFill=1;strokeWidth=1;entryX=0;entryY=0.5;entryDx=0;entryDy=0;strokeColor=#FFFFFF;flowAnimation=0;" edge="1" parent="ufFklaLvF3Zcsidc5OTK-111" source="ufFklaLvF3Zcsidc5OTK-117" target="ufFklaLvF3Zcsidc5OTK-122">
          <mxGeometry relative="1" as="geometry">
            <mxPoint x="309" y="993" as="targetPoint" />
          </mxGeometry>
        </mxCell>
        <mxCell id="ufFklaLvF3Zcsidc5OTK-117" value="Queue A" style="rounded=1;whiteSpace=wrap;html=1;fontSize=11;fontStyle=1;fillColor=#191A21;" vertex="1" parent="ufFklaLvF3Zcsidc5OTK-111">
          <mxGeometry x="96" y="963" width="120" height="60" as="geometry" />
        </mxCell>
        <mxCell id="ufFklaLvF3Zcsidc5OTK-118" style="edgeStyle=none;curved=1;rounded=0;orthogonalLoop=1;jettySize=auto;html=1;fontSize=12;startSize=8;endSize=8;endArrow=block;endFill=1;strokeWidth=1;entryX=0.003;entryY=0.463;entryDx=0;entryDy=0;entryPerimeter=0;strokeColor=#FFFFFF;flowAnimation=0;" edge="1" parent="ufFklaLvF3Zcsidc5OTK-111" target="ufFklaLvF3Zcsidc5OTK-123">
          <mxGeometry relative="1" as="geometry">
            <mxPoint x="215" y="1080" as="sourcePoint" />
            <mxPoint x="314.1200000000001" y="1079.76" as="targetPoint" />
          </mxGeometry>
        </mxCell>
        <mxCell id="ufFklaLvF3Zcsidc5OTK-119" value="Queue B" style="rounded=1;whiteSpace=wrap;html=1;fontSize=11;fontStyle=1;fillColor=#191A21;" vertex="1" parent="ufFklaLvF3Zcsidc5OTK-111">
          <mxGeometry x="94" y="1048" width="120" height="60" as="geometry" />
        </mxCell>
        <mxCell id="ufFklaLvF3Zcsidc5OTK-120" style="edgeStyle=none;curved=1;rounded=0;orthogonalLoop=1;jettySize=auto;html=1;entryX=0;entryY=0.5;entryDx=0;entryDy=0;fontSize=12;startSize=8;endSize=8;endArrow=block;endFill=1;strokeColor=#FFFFFF;flowAnimation=0;strokeWidth=1;" edge="1" parent="ufFklaLvF3Zcsidc5OTK-111" source="ufFklaLvF3Zcsidc5OTK-121" target="ufFklaLvF3Zcsidc5OTK-124">
          <mxGeometry relative="1" as="geometry" />
        </mxCell>
        <mxCell id="ufFklaLvF3Zcsidc5OTK-121" value="Queue C" style="rounded=1;whiteSpace=wrap;html=1;fontSize=11;fontStyle=1;fillColor=#191A21;" vertex="1" parent="ufFklaLvF3Zcsidc5OTK-111">
          <mxGeometry x="96" y="1130.5" width="120" height="60" as="geometry" />
        </mxCell>
        <mxCell id="ufFklaLvF3Zcsidc5OTK-122" value="Consumer A" style="ellipse;whiteSpace=wrap;html=1;aspect=fixed;fontSize=8;fontStyle=1" vertex="1" parent="ufFklaLvF3Zcsidc5OTK-111">
          <mxGeometry x="323" y="961" width="64" height="64" as="geometry" />
        </mxCell>
        <mxCell id="ufFklaLvF3Zcsidc5OTK-123" value="Consumer B" style="ellipse;whiteSpace=wrap;html=1;aspect=fixed;fontSize=8;fontStyle=1" vertex="1" parent="ufFklaLvF3Zcsidc5OTK-111">
          <mxGeometry x="323" y="1051" width="64" height="64" as="geometry" />
        </mxCell>
        <mxCell id="ufFklaLvF3Zcsidc5OTK-124" value="Consumer C" style="ellipse;whiteSpace=wrap;html=1;aspect=fixed;fontSize=8;fontStyle=1" vertex="1" parent="ufFklaLvF3Zcsidc5OTK-111">
          <mxGeometry x="323" y="1128.5" width="64" height="64" as="geometry" />
        </mxCell>
        <mxCell id="ufFklaLvF3Zcsidc5OTK-125" value="Routing Key: &lt;font color=&quot;#ff33ff&quot;&gt;&lt;b&gt;X&lt;/b&gt;&lt;/font&gt;" style="text;strokeColor=none;fillColor=none;html=1;align=center;verticalAlign=middle;whiteSpace=wrap;rounded=0;fontSize=9;rotation=-30;" vertex="1" parent="ufFklaLvF3Zcsidc5OTK-111">
          <mxGeometry x="-28" y="1001" width="82" height="30" as="geometry" />
        </mxCell>
        <mxCell id="ufFklaLvF3Zcsidc5OTK-126" value="Routing Key: &lt;b&gt;&lt;font color=&quot;#ff33ff&quot;&gt;Z&lt;/font&gt;&lt;/b&gt;" style="text;strokeColor=none;fillColor=none;html=1;align=center;verticalAlign=middle;whiteSpace=wrap;rounded=0;fontSize=9;rotation=28;" vertex="1" parent="ufFklaLvF3Zcsidc5OTK-111">
          <mxGeometry x="-22" y="1126" width="82" height="30" as="geometry" />
        </mxCell>
        <mxCell id="ufFklaLvF3Zcsidc5OTK-127" value="Routing Key: &lt;font color=&quot;#ff33ff&quot;&gt;&lt;b&gt;Y&lt;/b&gt;&lt;/font&gt;" style="text;strokeColor=none;fillColor=none;html=1;align=center;verticalAlign=middle;whiteSpace=wrap;rounded=0;fontSize=9;rotation=0;" vertex="1" parent="ufFklaLvF3Zcsidc5OTK-111">
          <mxGeometry x="-12.160000000000025" y="1051" width="82" height="30" as="geometry" />
        </mxCell>
        <mxCell id="ufFklaLvF3Zcsidc5OTK-128" value="Producer" style="ellipse;whiteSpace=wrap;html=1;aspect=fixed;fontSize=10;fontStyle=1" vertex="1" parent="ufFklaLvF3Zcsidc5OTK-111">
          <mxGeometry x="-298" y="1038" width="80" height="80" as="geometry" />
        </mxCell>
        <mxCell id="ufFklaLvF3Zcsidc5OTK-129" value="" style="endArrow=block;html=1;rounded=0;fontSize=12;startSize=8;endSize=8;curved=1;endFill=1;strokeWidth=2;flowAnimation=1;strokeColor=#3DFF1F;" edge="1" parent="ufFklaLvF3Zcsidc5OTK-111">
          <mxGeometry relative="1" as="geometry">
            <mxPoint x="-218" y="1077.9" as="sourcePoint" />
            <mxPoint x="-118" y="1077.9" as="targetPoint" />
          </mxGeometry>
        </mxCell>
        <mxCell id="ufFklaLvF3Zcsidc5OTK-130" value="" style="shape=message;html=1;outlineConnect=0;fontSize=16;" vertex="1" parent="ufFklaLvF3Zcsidc5OTK-129">
          <mxGeometry width="20" height="14" relative="1" as="geometry">
            <mxPoint x="13" y="-7" as="offset" />
          </mxGeometry>
        </mxCell>
        <mxCell id="ufFklaLvF3Zcsidc5OTK-91" value="camada3" style="" visible="0" parent="0" />
        <mxCell id="ufFklaLvF3Zcsidc5OTK-92" style="edgeStyle=none;curved=1;rounded=0;orthogonalLoop=1;jettySize=auto;html=1;fontSize=12;startSize=8;endSize=8;endArrow=block;endFill=1;strokeWidth=1;strokeColor=#FFFFFF;flowAnimation=0;" edge="1" parent="ufFklaLvF3Zcsidc5OTK-91" source="ufFklaLvF3Zcsidc5OTK-95" target="ufFklaLvF3Zcsidc5OTK-99">
          <mxGeometry relative="1" as="geometry" />
        </mxCell>
        <mxCell id="ufFklaLvF3Zcsidc5OTK-93" style="edgeStyle=none;curved=1;rounded=0;orthogonalLoop=1;jettySize=auto;html=1;entryX=0;entryY=0.5;entryDx=0;entryDy=0;fontSize=12;startSize=8;endSize=8;endArrow=block;endFill=1;strokeWidth=1;strokeColor=#FFFFFF;flowAnimation=0;" edge="1" parent="ufFklaLvF3Zcsidc5OTK-91" source="ufFklaLvF3Zcsidc5OTK-95" target="ufFklaLvF3Zcsidc5OTK-97">
          <mxGeometry relative="1" as="geometry" />
        </mxCell>
        <mxCell id="ufFklaLvF3Zcsidc5OTK-94" style="edgeStyle=none;curved=1;rounded=0;orthogonalLoop=1;jettySize=auto;html=1;entryX=0;entryY=0.5;entryDx=0;entryDy=0;fontSize=12;startSize=8;endSize=8;endArrow=block;endFill=1;strokeWidth=1;strokeColor=#FFFFFF;flowAnimation=0;" edge="1" parent="ufFklaLvF3Zcsidc5OTK-91" source="ufFklaLvF3Zcsidc5OTK-95" target="ufFklaLvF3Zcsidc5OTK-101">
          <mxGeometry relative="1" as="geometry" />
        </mxCell>
        <mxCell id="ufFklaLvF3Zcsidc5OTK-95" value="Exchange" style="rhombus;whiteSpace=wrap;html=1;fontSize=15;strokeWidth=2;fontStyle=1" vertex="1" parent="ufFklaLvF3Zcsidc5OTK-91">
          <mxGeometry x="-117.15999999999997" y="1025.5" width="105" height="105" as="geometry" />
        </mxCell>
        <mxCell id="ufFklaLvF3Zcsidc5OTK-96" style="edgeStyle=none;curved=1;rounded=0;orthogonalLoop=1;jettySize=auto;html=1;fontSize=12;startSize=8;endSize=8;endArrow=block;endFill=1;strokeWidth=1;entryX=0;entryY=0.5;entryDx=0;entryDy=0;strokeColor=#FFFFFF;flowAnimation=0;" edge="1" parent="ufFklaLvF3Zcsidc5OTK-91" source="ufFklaLvF3Zcsidc5OTK-97" target="ufFklaLvF3Zcsidc5OTK-102">
          <mxGeometry relative="1" as="geometry">
            <mxPoint x="309" y="993" as="targetPoint" />
          </mxGeometry>
        </mxCell>
        <mxCell id="ufFklaLvF3Zcsidc5OTK-97" value="Queue A" style="rounded=1;whiteSpace=wrap;html=1;fontSize=11;fontStyle=1;fillColor=#191A21;" vertex="1" parent="ufFklaLvF3Zcsidc5OTK-91">
          <mxGeometry x="96" y="963" width="120" height="60" as="geometry" />
        </mxCell>
        <mxCell id="ufFklaLvF3Zcsidc5OTK-98" style="edgeStyle=none;curved=1;rounded=0;orthogonalLoop=1;jettySize=auto;html=1;fontSize=12;startSize=8;endSize=8;endArrow=block;endFill=1;strokeWidth=1;entryX=0.003;entryY=0.463;entryDx=0;entryDy=0;entryPerimeter=0;strokeColor=#FFFFFF;flowAnimation=0;" edge="1" parent="ufFklaLvF3Zcsidc5OTK-91" target="ufFklaLvF3Zcsidc5OTK-103">
          <mxGeometry relative="1" as="geometry">
            <mxPoint x="215" y="1080" as="sourcePoint" />
            <mxPoint x="314.1200000000001" y="1079.76" as="targetPoint" />
          </mxGeometry>
        </mxCell>
        <mxCell id="ufFklaLvF3Zcsidc5OTK-99" value="Queue B" style="rounded=1;whiteSpace=wrap;html=1;fontSize=11;fontStyle=1;fillColor=#191A21;" vertex="1" parent="ufFklaLvF3Zcsidc5OTK-91">
          <mxGeometry x="94" y="1048" width="120" height="60" as="geometry" />
        </mxCell>
        <mxCell id="ufFklaLvF3Zcsidc5OTK-100" style="edgeStyle=none;curved=1;rounded=0;orthogonalLoop=1;jettySize=auto;html=1;entryX=0;entryY=0.5;entryDx=0;entryDy=0;fontSize=12;startSize=8;endSize=8;endArrow=block;endFill=1;strokeColor=#FFFFFF;flowAnimation=0;strokeWidth=1;" edge="1" parent="ufFklaLvF3Zcsidc5OTK-91" source="ufFklaLvF3Zcsidc5OTK-101" target="ufFklaLvF3Zcsidc5OTK-104">
          <mxGeometry relative="1" as="geometry" />
        </mxCell>
        <mxCell id="ufFklaLvF3Zcsidc5OTK-101" value="Queue C" style="rounded=1;whiteSpace=wrap;html=1;fontSize=11;fontStyle=1;fillColor=#191A21;" vertex="1" parent="ufFklaLvF3Zcsidc5OTK-91">
          <mxGeometry x="96" y="1130.5" width="120" height="60" as="geometry" />
        </mxCell>
        <mxCell id="ufFklaLvF3Zcsidc5OTK-102" value="Consumer A" style="ellipse;whiteSpace=wrap;html=1;aspect=fixed;fontSize=8;fontStyle=1" vertex="1" parent="ufFklaLvF3Zcsidc5OTK-91">
          <mxGeometry x="323" y="961" width="64" height="64" as="geometry" />
        </mxCell>
        <mxCell id="ufFklaLvF3Zcsidc5OTK-103" value="Consumer B" style="ellipse;whiteSpace=wrap;html=1;aspect=fixed;fontSize=8;fontStyle=1" vertex="1" parent="ufFklaLvF3Zcsidc5OTK-91">
          <mxGeometry x="323" y="1051" width="64" height="64" as="geometry" />
        </mxCell>
        <mxCell id="ufFklaLvF3Zcsidc5OTK-104" value="Consumer C" style="ellipse;whiteSpace=wrap;html=1;aspect=fixed;fontSize=8;fontStyle=1" vertex="1" parent="ufFklaLvF3Zcsidc5OTK-91">
          <mxGeometry x="323" y="1128.5" width="64" height="64" as="geometry" />
        </mxCell>
        <mxCell id="ufFklaLvF3Zcsidc5OTK-105" value="Routing Key: &lt;font color=&quot;#ff33ff&quot;&gt;&lt;b&gt;X&lt;/b&gt;&lt;/font&gt;" style="text;strokeColor=none;fillColor=none;html=1;align=center;verticalAlign=middle;whiteSpace=wrap;rounded=0;fontSize=9;rotation=-30;" vertex="1" parent="ufFklaLvF3Zcsidc5OTK-91">
          <mxGeometry x="-28" y="1001" width="82" height="30" as="geometry" />
        </mxCell>
        <mxCell id="ufFklaLvF3Zcsidc5OTK-106" value="Routing Key: &lt;b&gt;&lt;font color=&quot;#ff33ff&quot;&gt;Z&lt;/font&gt;&lt;/b&gt;" style="text;strokeColor=none;fillColor=none;html=1;align=center;verticalAlign=middle;whiteSpace=wrap;rounded=0;fontSize=9;rotation=28;" vertex="1" parent="ufFklaLvF3Zcsidc5OTK-91">
          <mxGeometry x="-22" y="1126" width="82" height="30" as="geometry" />
        </mxCell>
        <mxCell id="ufFklaLvF3Zcsidc5OTK-107" value="Routing Key: &lt;font color=&quot;#ff33ff&quot;&gt;&lt;b&gt;Y&lt;/b&gt;&lt;/font&gt;" style="text;strokeColor=none;fillColor=none;html=1;align=center;verticalAlign=middle;whiteSpace=wrap;rounded=0;fontSize=9;rotation=0;" vertex="1" parent="ufFklaLvF3Zcsidc5OTK-91">
          <mxGeometry x="-12.160000000000025" y="1051" width="82" height="30" as="geometry" />
        </mxCell>
        <mxCell id="ufFklaLvF3Zcsidc5OTK-108" value="Producer" style="ellipse;whiteSpace=wrap;html=1;aspect=fixed;fontSize=10;fontStyle=1" vertex="1" parent="ufFklaLvF3Zcsidc5OTK-91">
          <mxGeometry x="-298" y="1038" width="80" height="80" as="geometry" />
        </mxCell>
        <mxCell id="ufFklaLvF3Zcsidc5OTK-109" value="" style="endArrow=block;html=1;rounded=0;fontSize=12;startSize=8;endSize=8;curved=1;endFill=1;strokeWidth=2;flowAnimation=1;strokeColor=#3DFF1F;" edge="1" parent="ufFklaLvF3Zcsidc5OTK-91">
          <mxGeometry relative="1" as="geometry">
            <mxPoint x="-218" y="1077.9" as="sourcePoint" />
            <mxPoint x="-118" y="1077.9" as="targetPoint" />
          </mxGeometry>
        </mxCell>
        <mxCell id="ufFklaLvF3Zcsidc5OTK-110" value="" style="shape=message;html=1;outlineConnect=0;fontSize=16;" vertex="1" parent="ufFklaLvF3Zcsidc5OTK-109">
          <mxGeometry width="20" height="14" relative="1" as="geometry">
            <mxPoint x="-8" y="-7" as="offset" />
          </mxGeometry>
        </mxCell>
        <mxCell id="ufFklaLvF3Zcsidc5OTK-2" value="camada1" style="" visible="0" parent="0" />
        <mxCell id="ufFklaLvF3Zcsidc5OTK-3" style="edgeStyle=none;curved=1;rounded=0;orthogonalLoop=1;jettySize=auto;html=1;fontSize=12;startSize=8;endSize=8;endArrow=block;endFill=1;strokeWidth=1;strokeColor=#FFFFFF;flowAnimation=0;" edge="1" parent="ufFklaLvF3Zcsidc5OTK-2" source="ufFklaLvF3Zcsidc5OTK-6" target="ufFklaLvF3Zcsidc5OTK-10">
          <mxGeometry relative="1" as="geometry" />
        </mxCell>
        <mxCell id="ufFklaLvF3Zcsidc5OTK-4" style="edgeStyle=none;curved=1;rounded=0;orthogonalLoop=1;jettySize=auto;html=1;entryX=0;entryY=0.5;entryDx=0;entryDy=0;fontSize=12;startSize=8;endSize=8;endArrow=block;endFill=1;strokeWidth=1;strokeColor=#FFFFFF;flowAnimation=0;" edge="1" parent="ufFklaLvF3Zcsidc5OTK-2" source="ufFklaLvF3Zcsidc5OTK-6" target="ufFklaLvF3Zcsidc5OTK-8">
          <mxGeometry relative="1" as="geometry" />
        </mxCell>
        <mxCell id="ufFklaLvF3Zcsidc5OTK-5" style="edgeStyle=none;curved=1;rounded=0;orthogonalLoop=1;jettySize=auto;html=1;entryX=0;entryY=0.5;entryDx=0;entryDy=0;fontSize=12;startSize=8;endSize=8;endArrow=block;endFill=1;strokeWidth=1;strokeColor=#FFFFFF;flowAnimation=0;" edge="1" parent="ufFklaLvF3Zcsidc5OTK-2" source="ufFklaLvF3Zcsidc5OTK-6" target="ufFklaLvF3Zcsidc5OTK-12">
          <mxGeometry relative="1" as="geometry" />
        </mxCell>
        <mxCell id="ufFklaLvF3Zcsidc5OTK-6" value="Exchange" style="rhombus;whiteSpace=wrap;html=1;fontSize=15;strokeWidth=2;fontStyle=1" vertex="1" parent="ufFklaLvF3Zcsidc5OTK-2">
          <mxGeometry x="-117.15999999999997" y="1025.5" width="105" height="105" as="geometry" />
        </mxCell>
        <mxCell id="ufFklaLvF3Zcsidc5OTK-7" style="edgeStyle=none;curved=1;rounded=0;orthogonalLoop=1;jettySize=auto;html=1;fontSize=12;startSize=8;endSize=8;endArrow=block;endFill=1;strokeWidth=1;entryX=0;entryY=0.5;entryDx=0;entryDy=0;strokeColor=#FFFFFF;flowAnimation=0;" edge="1" parent="ufFklaLvF3Zcsidc5OTK-2" source="ufFklaLvF3Zcsidc5OTK-8" target="ufFklaLvF3Zcsidc5OTK-13">
          <mxGeometry relative="1" as="geometry">
            <mxPoint x="309" y="993" as="targetPoint" />
          </mxGeometry>
        </mxCell>
        <mxCell id="ufFklaLvF3Zcsidc5OTK-8" value="Queue A" style="rounded=1;whiteSpace=wrap;html=1;fontSize=11;fontStyle=1;fillColor=#191A21;" vertex="1" parent="ufFklaLvF3Zcsidc5OTK-2">
          <mxGeometry x="96" y="963" width="120" height="60" as="geometry" />
        </mxCell>
        <mxCell id="ufFklaLvF3Zcsidc5OTK-9" style="edgeStyle=none;curved=1;rounded=0;orthogonalLoop=1;jettySize=auto;html=1;fontSize=12;startSize=8;endSize=8;endArrow=block;endFill=1;strokeWidth=1;entryX=0.003;entryY=0.463;entryDx=0;entryDy=0;entryPerimeter=0;strokeColor=#FFFFFF;flowAnimation=0;" edge="1" parent="ufFklaLvF3Zcsidc5OTK-2" target="ufFklaLvF3Zcsidc5OTK-14">
          <mxGeometry relative="1" as="geometry">
            <mxPoint x="215" y="1080" as="sourcePoint" />
            <mxPoint x="314.1200000000001" y="1079.76" as="targetPoint" />
          </mxGeometry>
        </mxCell>
        <mxCell id="ufFklaLvF3Zcsidc5OTK-10" value="Queue B" style="rounded=1;whiteSpace=wrap;html=1;fontSize=11;fontStyle=1;fillColor=#191A21;" vertex="1" parent="ufFklaLvF3Zcsidc5OTK-2">
          <mxGeometry x="94" y="1048" width="120" height="60" as="geometry" />
        </mxCell>
        <mxCell id="ufFklaLvF3Zcsidc5OTK-11" style="edgeStyle=none;curved=1;rounded=0;orthogonalLoop=1;jettySize=auto;html=1;entryX=0;entryY=0.5;entryDx=0;entryDy=0;fontSize=12;startSize=8;endSize=8;endArrow=block;endFill=1;strokeColor=#FFFFFF;flowAnimation=0;strokeWidth=1;" edge="1" parent="ufFklaLvF3Zcsidc5OTK-2" source="ufFklaLvF3Zcsidc5OTK-12" target="ufFklaLvF3Zcsidc5OTK-15">
          <mxGeometry relative="1" as="geometry" />
        </mxCell>
        <mxCell id="ufFklaLvF3Zcsidc5OTK-12" value="Queue C" style="rounded=1;whiteSpace=wrap;html=1;fontSize=11;fontStyle=1;fillColor=#191A21;" vertex="1" parent="ufFklaLvF3Zcsidc5OTK-2">
          <mxGeometry x="96" y="1130.5" width="120" height="60" as="geometry" />
        </mxCell>
        <mxCell id="ufFklaLvF3Zcsidc5OTK-13" value="Consumer A" style="ellipse;whiteSpace=wrap;html=1;aspect=fixed;fontSize=8;fontStyle=1" vertex="1" parent="ufFklaLvF3Zcsidc5OTK-2">
          <mxGeometry x="323" y="961" width="64" height="64" as="geometry" />
        </mxCell>
        <mxCell id="ufFklaLvF3Zcsidc5OTK-14" value="Consumer B" style="ellipse;whiteSpace=wrap;html=1;aspect=fixed;fontSize=8;fontStyle=1" vertex="1" parent="ufFklaLvF3Zcsidc5OTK-2">
          <mxGeometry x="323" y="1051" width="64" height="64" as="geometry" />
        </mxCell>
        <mxCell id="ufFklaLvF3Zcsidc5OTK-15" value="Consumer C" style="ellipse;whiteSpace=wrap;html=1;aspect=fixed;fontSize=8;fontStyle=1" vertex="1" parent="ufFklaLvF3Zcsidc5OTK-2">
          <mxGeometry x="323" y="1128.5" width="64" height="64" as="geometry" />
        </mxCell>
        <mxCell id="ufFklaLvF3Zcsidc5OTK-16" value="Routing Key: &lt;font color=&quot;#ff33ff&quot;&gt;&lt;b&gt;X&lt;/b&gt;&lt;/font&gt;" style="text;strokeColor=none;fillColor=none;html=1;align=center;verticalAlign=middle;whiteSpace=wrap;rounded=0;fontSize=9;rotation=-30;" vertex="1" parent="ufFklaLvF3Zcsidc5OTK-2">
          <mxGeometry x="-28" y="1001" width="82" height="30" as="geometry" />
        </mxCell>
        <mxCell id="ufFklaLvF3Zcsidc5OTK-17" value="Routing Key: &lt;b&gt;&lt;font color=&quot;#ff33ff&quot;&gt;Z&lt;/font&gt;&lt;/b&gt;" style="text;strokeColor=none;fillColor=none;html=1;align=center;verticalAlign=middle;whiteSpace=wrap;rounded=0;fontSize=9;rotation=28;" vertex="1" parent="ufFklaLvF3Zcsidc5OTK-2">
          <mxGeometry x="-22" y="1126" width="82" height="30" as="geometry" />
        </mxCell>
        <mxCell id="ufFklaLvF3Zcsidc5OTK-18" value="Routing Key: &lt;font color=&quot;#ff33ff&quot;&gt;&lt;b&gt;Y&lt;/b&gt;&lt;/font&gt;" style="text;strokeColor=none;fillColor=none;html=1;align=center;verticalAlign=middle;whiteSpace=wrap;rounded=0;fontSize=9;rotation=0;" vertex="1" parent="ufFklaLvF3Zcsidc5OTK-2">
          <mxGeometry x="-12.160000000000025" y="1051" width="82" height="30" as="geometry" />
        </mxCell>
        <mxCell id="ufFklaLvF3Zcsidc5OTK-21" value="Producer" style="ellipse;whiteSpace=wrap;html=1;aspect=fixed;fontSize=10;fontStyle=1" vertex="1" parent="ufFklaLvF3Zcsidc5OTK-2">
          <mxGeometry x="-298" y="1038" width="80" height="80" as="geometry" />
        </mxCell>
        <mxCell id="ufFklaLvF3Zcsidc5OTK-49" value="" style="endArrow=block;html=1;rounded=0;fontSize=12;startSize=8;endSize=8;curved=1;endFill=1;strokeWidth=2;flowAnimation=1;strokeColor=#3DFF1F;" edge="1" parent="ufFklaLvF3Zcsidc5OTK-2">
          <mxGeometry relative="1" as="geometry">
            <mxPoint x="-218" y="1077.9" as="sourcePoint" />
            <mxPoint x="-118" y="1077.9" as="targetPoint" />
          </mxGeometry>
        </mxCell>
        <mxCell id="ufFklaLvF3Zcsidc5OTK-50" value="" style="shape=message;html=1;outlineConnect=0;fontSize=16;" vertex="1" parent="ufFklaLvF3Zcsidc5OTK-49">
          <mxGeometry width="20" height="14" relative="1" as="geometry">
            <mxPoint x="-29" y="-7" as="offset" />
          </mxGeometry>
        </mxCell>
        <mxCell id="ufFklaLvF3Zcsidc5OTK-51" value="camada0" style="" visible="0" parent="0" />
        <mxCell id="ufFklaLvF3Zcsidc5OTK-52" style="edgeStyle=none;curved=1;rounded=0;orthogonalLoop=1;jettySize=auto;html=1;fontSize=12;startSize=8;endSize=8;endArrow=block;endFill=1;strokeWidth=1;strokeColor=#FFFFFF;flowAnimation=0;" edge="1" parent="ufFklaLvF3Zcsidc5OTK-51" source="ufFklaLvF3Zcsidc5OTK-55" target="ufFklaLvF3Zcsidc5OTK-59">
          <mxGeometry relative="1" as="geometry" />
        </mxCell>
        <mxCell id="ufFklaLvF3Zcsidc5OTK-53" style="edgeStyle=none;curved=1;rounded=0;orthogonalLoop=1;jettySize=auto;html=1;entryX=0;entryY=0.5;entryDx=0;entryDy=0;fontSize=12;startSize=8;endSize=8;endArrow=block;endFill=1;strokeWidth=1;strokeColor=#FFFFFF;flowAnimation=0;" edge="1" parent="ufFklaLvF3Zcsidc5OTK-51" source="ufFklaLvF3Zcsidc5OTK-55" target="ufFklaLvF3Zcsidc5OTK-57">
          <mxGeometry relative="1" as="geometry" />
        </mxCell>
        <mxCell id="ufFklaLvF3Zcsidc5OTK-54" style="edgeStyle=none;curved=1;rounded=0;orthogonalLoop=1;jettySize=auto;html=1;entryX=0;entryY=0.5;entryDx=0;entryDy=0;fontSize=12;startSize=8;endSize=8;endArrow=block;endFill=1;strokeWidth=1;strokeColor=#FFFFFF;flowAnimation=0;" edge="1" parent="ufFklaLvF3Zcsidc5OTK-51" source="ufFklaLvF3Zcsidc5OTK-55" target="ufFklaLvF3Zcsidc5OTK-61">
          <mxGeometry relative="1" as="geometry" />
        </mxCell>
        <mxCell id="ufFklaLvF3Zcsidc5OTK-55" value="Exchange" style="rhombus;whiteSpace=wrap;html=1;fontSize=15;strokeWidth=2;fontStyle=1" vertex="1" parent="ufFklaLvF3Zcsidc5OTK-51">
          <mxGeometry x="-117.15999999999997" y="1025.5" width="105" height="105" as="geometry" />
        </mxCell>
        <mxCell id="ufFklaLvF3Zcsidc5OTK-56" style="edgeStyle=none;curved=1;rounded=0;orthogonalLoop=1;jettySize=auto;html=1;fontSize=12;startSize=8;endSize=8;endArrow=block;endFill=1;strokeWidth=1;entryX=0;entryY=0.5;entryDx=0;entryDy=0;strokeColor=#FFFFFF;flowAnimation=0;" edge="1" parent="ufFklaLvF3Zcsidc5OTK-51" source="ufFklaLvF3Zcsidc5OTK-57" target="ufFklaLvF3Zcsidc5OTK-62">
          <mxGeometry relative="1" as="geometry">
            <mxPoint x="309" y="993" as="targetPoint" />
          </mxGeometry>
        </mxCell>
        <mxCell id="ufFklaLvF3Zcsidc5OTK-57" value="Queue A" style="rounded=1;whiteSpace=wrap;html=1;fontSize=11;fontStyle=1;fillColor=#191A21;" vertex="1" parent="ufFklaLvF3Zcsidc5OTK-51">
          <mxGeometry x="96" y="963" width="120" height="60" as="geometry" />
        </mxCell>
        <mxCell id="ufFklaLvF3Zcsidc5OTK-58" style="edgeStyle=none;curved=1;rounded=0;orthogonalLoop=1;jettySize=auto;html=1;fontSize=12;startSize=8;endSize=8;endArrow=block;endFill=1;strokeWidth=1;entryX=0.003;entryY=0.463;entryDx=0;entryDy=0;entryPerimeter=0;strokeColor=#FFFFFF;flowAnimation=0;" edge="1" parent="ufFklaLvF3Zcsidc5OTK-51" target="ufFklaLvF3Zcsidc5OTK-63">
          <mxGeometry relative="1" as="geometry">
            <mxPoint x="215" y="1080" as="sourcePoint" />
            <mxPoint x="314.1200000000001" y="1079.76" as="targetPoint" />
          </mxGeometry>
        </mxCell>
        <mxCell id="ufFklaLvF3Zcsidc5OTK-59" value="Queue B" style="rounded=1;whiteSpace=wrap;html=1;fontSize=11;fontStyle=1;fillColor=#191A21;" vertex="1" parent="ufFklaLvF3Zcsidc5OTK-51">
          <mxGeometry x="94" y="1048" width="120" height="60" as="geometry" />
        </mxCell>
        <mxCell id="ufFklaLvF3Zcsidc5OTK-60" style="edgeStyle=none;curved=1;rounded=0;orthogonalLoop=1;jettySize=auto;html=1;entryX=0;entryY=0.5;entryDx=0;entryDy=0;fontSize=12;startSize=8;endSize=8;endArrow=block;endFill=1;strokeColor=#FFFFFF;flowAnimation=0;strokeWidth=1;" edge="1" parent="ufFklaLvF3Zcsidc5OTK-51" source="ufFklaLvF3Zcsidc5OTK-61" target="ufFklaLvF3Zcsidc5OTK-64">
          <mxGeometry relative="1" as="geometry" />
        </mxCell>
        <mxCell id="ufFklaLvF3Zcsidc5OTK-61" value="Queue C" style="rounded=1;whiteSpace=wrap;html=1;fontSize=11;fontStyle=1;fillColor=#191A21;" vertex="1" parent="ufFklaLvF3Zcsidc5OTK-51">
          <mxGeometry x="96" y="1130.5" width="120" height="60" as="geometry" />
        </mxCell>
        <mxCell id="ufFklaLvF3Zcsidc5OTK-62" value="Consumer A" style="ellipse;whiteSpace=wrap;html=1;aspect=fixed;fontSize=8;fontStyle=1" vertex="1" parent="ufFklaLvF3Zcsidc5OTK-51">
          <mxGeometry x="323" y="961" width="64" height="64" as="geometry" />
        </mxCell>
        <mxCell id="ufFklaLvF3Zcsidc5OTK-63" value="Consumer B" style="ellipse;whiteSpace=wrap;html=1;aspect=fixed;fontSize=8;fontStyle=1" vertex="1" parent="ufFklaLvF3Zcsidc5OTK-51">
          <mxGeometry x="323" y="1051" width="64" height="64" as="geometry" />
        </mxCell>
        <mxCell id="ufFklaLvF3Zcsidc5OTK-64" value="Consumer C" style="ellipse;whiteSpace=wrap;html=1;aspect=fixed;fontSize=8;fontStyle=1" vertex="1" parent="ufFklaLvF3Zcsidc5OTK-51">
          <mxGeometry x="323" y="1128.5" width="64" height="64" as="geometry" />
        </mxCell>
        <mxCell id="ufFklaLvF3Zcsidc5OTK-65" value="Routing Key: &lt;font color=&quot;#ff33ff&quot;&gt;&lt;b&gt;X&lt;/b&gt;&lt;/font&gt;" style="text;strokeColor=none;fillColor=none;html=1;align=center;verticalAlign=middle;whiteSpace=wrap;rounded=0;fontSize=9;rotation=-30;" vertex="1" parent="ufFklaLvF3Zcsidc5OTK-51">
          <mxGeometry x="-28" y="1001" width="82" height="30" as="geometry" />
        </mxCell>
        <mxCell id="ufFklaLvF3Zcsidc5OTK-66" value="Routing Key: &lt;b&gt;&lt;font color=&quot;#ff33ff&quot;&gt;Z&lt;/font&gt;&lt;/b&gt;" style="text;strokeColor=none;fillColor=none;html=1;align=center;verticalAlign=middle;whiteSpace=wrap;rounded=0;fontSize=9;rotation=28;" vertex="1" parent="ufFklaLvF3Zcsidc5OTK-51">
          <mxGeometry x="-22" y="1126" width="82" height="30" as="geometry" />
        </mxCell>
        <mxCell id="ufFklaLvF3Zcsidc5OTK-67" value="Routing Key: &lt;font color=&quot;#ff33ff&quot;&gt;&lt;b&gt;Y&lt;/b&gt;&lt;/font&gt;" style="text;strokeColor=none;fillColor=none;html=1;align=center;verticalAlign=middle;whiteSpace=wrap;rounded=0;fontSize=9;rotation=0;" vertex="1" parent="ufFklaLvF3Zcsidc5OTK-51">
          <mxGeometry x="-12.160000000000025" y="1051" width="82" height="30" as="geometry" />
        </mxCell>
        <mxCell id="ufFklaLvF3Zcsidc5OTK-68" value="Producer" style="ellipse;whiteSpace=wrap;html=1;aspect=fixed;fontSize=10;fontStyle=1" vertex="1" parent="ufFklaLvF3Zcsidc5OTK-51">
          <mxGeometry x="-298" y="1038" width="80" height="80" as="geometry" />
        </mxCell>
        <mxCell id="ufFklaLvF3Zcsidc5OTK-69" value="" style="endArrow=block;html=1;rounded=0;fontSize=12;startSize=8;endSize=8;curved=1;endFill=1;strokeWidth=2;flowAnimation=1;strokeColor=#3DFF1F;" edge="1" parent="ufFklaLvF3Zcsidc5OTK-51">
          <mxGeometry relative="1" as="geometry">
            <mxPoint x="-218" y="1077.9" as="sourcePoint" />
            <mxPoint x="-118" y="1077.9" as="targetPoint" />
          </mxGeometry>
        </mxCell>
        <mxCell id="ufFklaLvF3Zcsidc5OTK-70" value="" style="shape=message;html=1;outlineConnect=0;fontSize=16;" vertex="1" parent="ufFklaLvF3Zcsidc5OTK-69">
          <mxGeometry width="20" height="14" relative="1" as="geometry">
            <mxPoint x="-50" y="-7" as="offset" />
          </mxGeometry>
        </mxCell>
      </root>
    </mxGraphModel>
  </diagram>
</mxfile>
